<svg width="27" height="38" viewBox="0 0 27 38" fill="none" xmlns="http://www.w3.org/2000/svg">
<path d="M13.5 0C6.05596 0 -1.55403e-07 6.09633 -1.55403e-07 13.5894V24.411C-1.55403e-07 31.904 6.05596 38 13.5 38C20.9436 38 27 31.9225 27 24.4526V13.5894C27 6.09633 20.9436 0 13.5 0ZM24.4608 24.4526C24.4608 30.5351 19.5441 35.4835 13.5 35.4835C7.45632 35.4835 2.53923 30.5162 2.53923 24.4106V13.5894C2.53923 7.48377 7.45632 2.51654 13.5 2.51654C19.5441 2.51654 24.4608 7.48377 24.4608 13.5894V24.4526Z" fill="white"/>
<path d="M13.5 10.4018C12.7988 10.4018 12.2304 10.9651 12.2304 11.6601V16.0641C12.2304 16.759 12.7988 17.3224 13.5 17.3224C14.2012 17.3224 14.7696 16.759 14.7696 16.0641V11.6601C14.7696 10.9651 14.2012 10.4018 13.5 10.4018Z" fill="white"/>
</svg>
