<svg width="375" height="462" viewBox="0 0 375 462" fill="none" xmlns="http://www.w3.org/2000/svg">
<path d="M416.786 230.895C416.786 357.588 314.194 460.29 187.643 460.29C61.0925 460.29 -41.5 357.588 -41.5 230.895C-41.5 104.202 61.0925 1.5 187.643 1.5C314.194 1.5 416.786 104.202 416.786 230.895Z" stroke="white" stroke-width="3"/>
<path d="M373.525 230.895C373.525 333.669 290.301 416.981 187.643 416.981C84.9854 416.981 1.76196 333.669 1.76196 230.895C1.76196 128.121 84.9854 44.8091 187.643 44.8091C290.301 44.8091 373.525 128.121 373.525 230.895Z" stroke="white" stroke-width="3"/>
<path d="M328.178 230.895C328.178 308.595 265.143 371.585 187.383 371.585C109.622 371.585 46.5874 308.595 46.5874 230.895C46.5874 153.195 109.622 90.2054 187.383 90.2054C265.143 90.2054 328.178 153.195 328.178 230.895Z" stroke="white" stroke-width="3"/>
<path d="M110.451 414.192C112.803 414.192 114.147 412.896 114.915 411.568L112.963 410.624C112.515 411.504 111.555 412.176 110.451 412.176C108.515 412.176 107.107 410.688 107.107 408.672C107.107 406.656 108.515 405.168 110.451 405.168C111.555 405.168 112.515 405.856 112.963 406.72L114.915 405.76C114.163 404.432 112.803 403.152 110.451 403.152C107.251 403.152 104.771 405.392 104.771 408.672C104.771 411.952 107.251 414.192 110.451 414.192ZM119.803 414.192C122.363 414.192 123.899 412.336 123.899 410.128C123.899 407.936 122.363 406.08 119.803 406.08C117.259 406.08 115.723 407.936 115.723 410.128C115.723 412.336 117.259 414.192 119.803 414.192ZM119.803 412.384C118.539 412.384 117.835 411.344 117.835 410.128C117.835 408.928 118.539 407.888 119.803 407.888C121.067 407.888 121.787 408.928 121.787 410.128C121.787 411.344 121.067 412.384 119.803 412.384ZM128.99 412.384C127.726 412.384 127.022 411.344 127.022 410.096C127.022 408.928 127.726 407.888 128.99 407.888C130.254 407.888 130.974 408.928 130.974 410.096C130.974 411.344 130.254 412.384 128.99 412.384ZM128.99 414.192C131.566 414.192 133.07 412.288 133.07 410.112C133.07 407.968 131.63 406.08 129.422 406.08C128.35 406.08 127.406 406.528 126.782 407.344C126.99 406.448 127.742 405.648 129.566 405.408C130.83 405.248 132.782 404.832 132.782 403.328H130.67C130.67 403.6 130.222 403.792 128.926 403.984C126.27 404.336 124.91 406.016 124.91 409.776C124.91 412.288 126.414 414.192 128.99 414.192ZM138.241 414.192C139.825 414.192 140.785 413.504 141.297 412.784L139.969 411.552C139.601 412.064 139.041 412.384 138.337 412.384C137.105 412.384 136.241 411.472 136.241 410.128C136.241 408.784 137.105 407.888 138.337 407.888C139.041 407.888 139.601 408.176 139.969 408.72L141.297 407.472C140.785 406.768 139.825 406.08 138.241 406.08C135.857 406.08 134.145 407.76 134.145 410.128C134.145 412.512 135.857 414.192 138.241 414.192ZM146.097 414V408.048H148.257V406.272H141.889V408.048H144.049V414H146.097ZM154.571 414C156.123 414 156.955 413.072 156.955 411.904C156.955 410.976 156.331 410.208 155.483 410.016C156.203 409.808 156.795 409.184 156.795 408.256C156.795 407.216 155.995 406.272 154.427 406.272H149.531V414H154.571ZM154.075 412.336H151.563V410.896H154.075C154.587 410.896 154.875 411.232 154.875 411.616C154.875 412.064 154.571 412.336 154.075 412.336ZM154.011 409.232H151.563V407.936H154.011C154.459 407.936 154.731 408.208 154.731 408.592C154.731 408.944 154.459 409.232 154.011 409.232ZM162.538 414.192C163.738 414.192 164.954 413.824 165.722 413.12L164.826 411.808C164.33 412.288 163.418 412.576 162.762 412.576C161.45 412.576 160.666 411.76 160.538 410.784H166.282V410.336C166.282 407.808 164.714 406.08 162.41 406.08C160.058 406.08 158.41 407.888 158.41 410.128C158.41 412.608 160.186 414.192 162.538 414.192ZM164.314 409.408H160.506C160.602 408.64 161.146 407.696 162.41 407.696C163.754 407.696 164.266 408.672 164.314 409.408ZM169.782 414V410.912H172.982V414H175.014V406.272H172.982V409.136H169.782V406.272H167.75V414H169.782ZM179.063 414V410.912H182.263V414H184.295V406.272H182.263V409.136H179.063V406.272H177.031V414H179.063ZM186.313 406.272V414H190.985C192.713 414 193.673 412.832 193.673 411.456C193.673 410.096 192.777 408.928 190.985 408.928H188.345V406.272H186.313ZM190.681 410.624C191.257 410.624 191.593 410.976 191.593 411.456C191.593 411.936 191.257 412.288 190.681 412.288H188.345V410.624H190.681ZM196.729 414V406.272H194.681V414H196.729ZM200.687 414L203.967 409.152V414H205.999V406.272H203.951L200.767 410.944V406.272H198.735V414H200.687ZM205.167 404.096L204.271 403.344C203.823 403.968 203.167 404.336 202.367 404.336C201.535 404.336 200.879 403.952 200.447 403.344L199.551 404.096C200.207 404.96 201.231 405.504 202.367 405.504C203.519 405.504 204.527 404.96 205.167 404.096ZM219.374 414V406.272H212.11V414H214.142V408.048H217.342V414H219.374ZM221.119 417.024C221.375 417.088 221.887 417.136 222.127 417.136C223.455 417.104 224.479 416.72 225.055 415.264L228.687 406.272H226.495L224.479 411.648L222.463 406.272H220.287L223.423 414.112L223.135 414.768C222.943 415.184 222.591 415.328 222.063 415.328C221.871 415.328 221.599 415.28 221.423 415.2L221.119 417.024ZM228.874 414.192C230.842 414.192 231.802 412.928 232.122 410.256L232.378 408.048H234.826V414H236.858V406.272H230.602L230.106 410.016C229.866 411.888 229.498 412.528 228.874 412.528V414.192ZM256.857 408.4C258.585 408.4 259.625 407.184 259.625 405.76C259.625 404.336 258.585 403.12 256.857 403.12C255.161 403.12 254.105 404.336 254.105 405.76C254.105 407.184 255.161 408.4 256.857 408.4ZM256.857 407.216C256.073 407.216 255.625 406.64 255.625 405.76C255.625 404.88 256.073 404.336 256.857 404.336C257.641 404.336 258.105 404.88 258.105 405.76C258.105 406.64 257.641 407.216 256.857 407.216ZM252.569 414V403.328H250.297V410.032L245.353 403.328H243.017V414H245.289V407.04L250.377 414H252.569ZM265.622 414V403.328H263.638L260.278 406.704L261.574 408.064L263.35 406.256V414H265.622ZM160.095 433C161.647 433 162.479 432.072 162.479 430.904C162.479 429.976 161.855 429.208 161.007 429.016C161.727 428.808 162.319 428.184 162.319 427.256C162.319 426.216 161.519 425.272 159.951 425.272H155.055V433H160.095ZM159.599 431.336H157.087V429.896H159.599C160.111 429.896 160.399 430.232 160.399 430.616C160.399 431.064 160.095 431.336 159.599 431.336ZM159.535 428.232H157.087V426.936H159.535C159.983 426.936 160.255 427.208 160.255 427.592C160.255 427.944 159.983 428.232 159.535 428.232ZM170.844 433V429.208H173.564C175.868 429.208 177.148 427.624 177.148 425.768C177.148 423.896 175.884 422.328 173.564 422.328H168.572V433H170.844ZM173.26 427.208H170.844V424.328H173.26C174.156 424.328 174.828 424.872 174.828 425.768C174.828 426.648 174.156 427.208 173.26 427.208ZM181.826 433.192C184.386 433.192 185.922 431.336 185.922 429.128C185.922 426.936 184.386 425.08 181.826 425.08C179.282 425.08 177.746 426.936 177.746 429.128C177.746 431.336 179.282 433.192 181.826 433.192ZM181.826 431.384C180.562 431.384 179.858 430.344 179.858 429.128C179.858 427.928 180.562 426.888 181.826 426.888C183.09 426.888 183.81 427.928 183.81 429.128C183.81 430.344 183.09 431.384 181.826 431.384ZM191.03 433.192C192.614 433.192 193.574 432.504 194.086 431.784L192.758 430.552C192.39 431.064 191.83 431.384 191.126 431.384C189.894 431.384 189.03 430.472 189.03 429.128C189.03 427.784 189.894 426.888 191.126 426.888C191.83 426.888 192.39 427.176 192.758 427.72L194.086 426.472C193.574 425.768 192.614 425.08 191.03 425.08C188.646 425.08 186.934 426.76 186.934 429.128C186.934 431.512 188.646 433.192 191.03 433.192ZM199.014 433.192C200.598 433.192 201.558 432.504 202.07 431.784L200.742 430.552C200.374 431.064 199.814 431.384 199.11 431.384C197.878 431.384 197.014 430.472 197.014 429.128C197.014 427.784 197.878 426.888 199.11 426.888C199.814 426.888 200.374 427.176 200.742 427.72L202.07 426.472C201.558 425.768 200.598 425.08 199.014 425.08C196.63 425.08 194.918 426.76 194.918 429.128C194.918 431.512 196.63 433.192 199.014 433.192ZM205.351 433L208.631 428.152V433H210.663V425.272H208.615L205.431 429.944V425.272H203.399V433H205.351ZM214.632 433L217.912 428.152V433H219.944V425.272H217.896L214.712 429.944V425.272H212.68V433H214.632Z" fill="#333333"/>
<path d="M125.531 63V52.328H115.931V63H118.203V54.328H123.243V63H125.531ZM132.002 63.192C133.986 63.192 135.426 61.704 135.426 59.128C135.426 56.552 133.986 55.08 132.002 55.08C131.058 55.08 130.21 55.496 129.618 56.248V55.272H127.586V65.944H129.618V62.008C130.242 62.808 131.09 63.192 132.002 63.192ZM131.362 61.384C130.706 61.384 129.954 60.984 129.618 60.504V57.768C129.954 57.272 130.706 56.888 131.362 56.888C132.53 56.888 133.314 57.8 133.314 59.128C133.314 60.472 132.53 61.384 131.362 61.384ZM140.498 63.192C143.058 63.192 144.594 61.336 144.594 59.128C144.594 56.936 143.058 55.08 140.498 55.08C137.954 55.08 136.418 56.936 136.418 59.128C136.418 61.336 137.954 63.192 140.498 63.192ZM140.498 61.384C139.234 61.384 138.53 60.344 138.53 59.128C138.53 57.928 139.234 56.888 140.498 56.888C141.762 56.888 142.482 57.928 142.482 59.128C142.482 60.344 141.762 61.384 140.498 61.384ZM145.382 64.968H147.43V63H152.182V64.968H154.214V61.224H153.366V55.272H147.11L146.614 59.016C146.374 60.888 146.006 61.192 145.382 61.304V64.968ZM148.886 57.048H151.334V61.224H147.75C148.23 60.776 148.534 60.088 148.646 59.144L148.886 57.048ZM162.164 63V58.008C162.164 55.784 160.548 55.08 158.788 55.08C157.572 55.08 156.356 55.464 155.412 56.296L156.18 57.656C156.836 57.048 157.604 56.744 158.436 56.744C159.46 56.744 160.132 57.256 160.132 58.04V59.08C159.62 58.472 158.708 58.136 157.684 58.136C156.452 58.136 154.996 58.824 154.996 60.632C154.996 62.36 156.452 63.192 157.684 63.192C158.692 63.192 159.604 62.824 160.132 62.2V63H162.164ZM158.5 61.816C157.7 61.816 157.044 61.4 157.044 60.68C157.044 59.928 157.7 59.512 158.5 59.512C159.156 59.512 159.796 59.736 160.132 60.184V61.144C159.796 61.592 159.156 61.816 158.5 61.816ZM165.716 63L167.78 60.024L168.148 60.424V63H170.196V60.424L170.564 60.024L172.628 63H175.156L172.02 58.776L175.06 55.272H172.564L170.196 58.072V55.272H168.148V58.072L165.78 55.272H163.284L166.324 58.776L163.188 63H165.716ZM182.852 63V58.008C182.852 55.784 181.236 55.08 179.476 55.08C178.26 55.08 177.044 55.464 176.1 56.296L176.868 57.656C177.524 57.048 178.292 56.744 179.124 56.744C180.148 56.744 180.82 57.256 180.82 58.04V59.08C180.308 58.472 179.396 58.136 178.372 58.136C177.14 58.136 175.684 58.824 175.684 60.632C175.684 62.36 177.14 63.192 178.372 63.192C179.38 63.192 180.292 62.824 180.82 62.2V63H182.852ZM179.188 61.816C178.388 61.816 177.732 61.4 177.732 60.68C177.732 59.928 178.388 59.512 179.188 59.512C179.844 59.512 180.484 59.736 180.82 60.184V61.144C180.484 61.592 179.844 61.816 179.188 61.816ZM190.913 63L194.193 58.152V63H196.225V55.272H194.177L190.993 59.944V55.272H188.961V63H190.913ZM206.752 63.192C208.736 63.192 210.176 61.704 210.176 59.128C210.176 56.552 208.736 55.08 206.752 55.08C205.808 55.08 204.96 55.496 204.368 56.248V55.272H202.336V65.944H204.368V62.008C204.992 62.808 205.84 63.192 206.752 63.192ZM206.112 61.384C205.456 61.384 204.704 60.984 204.368 60.504V57.768C204.704 57.272 205.456 56.888 206.112 56.888C207.28 56.888 208.064 57.8 208.064 59.128C208.064 60.472 207.28 61.384 206.112 61.384ZM215.296 63.192C216.496 63.192 217.712 62.824 218.48 62.12L217.584 60.808C217.088 61.288 216.176 61.576 215.52 61.576C214.208 61.576 213.424 60.76 213.296 59.784H219.04V59.336C219.04 56.808 217.472 55.08 215.168 55.08C212.816 55.08 211.168 56.888 211.168 59.128C211.168 61.608 212.944 63.192 215.296 63.192ZM217.072 58.408H213.264C213.36 57.64 213.904 56.696 215.168 56.696C216.512 56.696 217.024 57.672 217.072 58.408ZM229.644 63V55.272H226.956L225.084 59.88L223.18 55.272H220.508V63H222.54V57.976L224.62 63H225.548L227.612 57.976V63H229.644ZM235.248 63.192C237.808 63.192 239.344 61.336 239.344 59.128C239.344 56.936 237.808 55.08 235.248 55.08C232.704 55.08 231.168 56.936 231.168 59.128C231.168 61.336 232.704 63.192 235.248 63.192ZM235.248 61.384C233.984 61.384 233.28 60.344 233.28 59.128C233.28 57.928 233.984 56.888 235.248 56.888C236.512 56.888 237.232 57.928 237.232 59.128C237.232 60.344 236.512 61.384 235.248 61.384ZM242.884 63V59.912H246.084V63H248.116V55.272H246.084V58.136H242.884V55.272H240.852V63H242.884ZM253.605 63V57.048H255.765V55.272H249.397V57.048H251.557V63H253.605ZM82.8576 82.192C85.4176 82.192 86.9536 80.336 86.9536 78.128C86.9536 75.936 85.4176 74.08 82.8576 74.08C80.3136 74.08 78.7776 75.936 78.7776 78.128C78.7776 80.336 80.3136 82.192 82.8576 82.192ZM82.8576 80.384C81.5936 80.384 80.8896 79.344 80.8896 78.128C80.8896 76.928 81.5936 75.888 82.8576 75.888C84.1216 75.888 84.8416 76.928 84.8416 78.128C84.8416 79.344 84.1216 80.384 82.8576 80.384ZM92.0451 80.384C90.7811 80.384 90.0771 79.344 90.0771 78.096C90.0771 76.928 90.7811 75.888 92.0451 75.888C93.3091 75.888 94.0291 76.928 94.0291 78.096C94.0291 79.344 93.3091 80.384 92.0451 80.384ZM92.0451 82.192C94.6211 82.192 96.1251 80.288 96.1251 78.112C96.1251 75.968 94.6851 74.08 92.4771 74.08C91.4051 74.08 90.4611 74.528 89.8371 75.344C90.0451 74.448 90.7971 73.648 92.6211 73.408C93.8851 73.248 95.8371 72.832 95.8371 71.328H93.7251C93.7251 71.6 93.2771 71.792 91.9811 71.984C89.3251 72.336 87.9651 74.016 87.9651 77.776C87.9651 80.288 89.4691 82.192 92.0451 82.192ZM101.28 82.192C103.839 82.192 105.375 80.336 105.375 78.128C105.375 75.936 103.839 74.08 101.28 74.08C98.7355 74.08 97.1995 75.936 97.1995 78.128C97.1995 80.336 98.7355 82.192 101.28 82.192ZM101.28 80.384C100.016 80.384 99.3115 79.344 99.3115 78.128C99.3115 76.928 100.016 75.888 101.28 75.888C102.543 75.888 103.264 76.928 103.264 78.128C103.264 79.344 102.543 80.384 101.28 80.384ZM111.299 82.192C113.283 82.192 114.723 80.704 114.723 78.128C114.723 75.552 113.283 74.08 111.299 74.08C110.355 74.08 109.507 74.496 108.915 75.248V74.272H106.883V84.944H108.915V81.008C109.539 81.808 110.387 82.192 111.299 82.192ZM110.659 80.384C110.003 80.384 109.251 79.984 108.915 79.504V76.768C109.251 76.272 110.003 75.888 110.659 75.888C111.827 75.888 112.611 76.8 112.611 78.128C112.611 79.472 111.827 80.384 110.659 80.384ZM115.939 85.024C116.195 85.088 116.707 85.136 116.947 85.136C118.275 85.104 119.299 84.72 119.875 83.264L123.507 74.272H121.315L119.299 79.648L117.283 74.272H115.107L118.243 82.112L117.955 82.768C117.763 83.184 117.411 83.328 116.883 83.328C116.691 83.328 116.419 83.28 116.243 83.2L115.939 85.024ZM123.694 83.968H125.742V82H130.494V83.968H132.526V80.224H131.678V74.272H125.422L124.926 78.016C124.686 79.888 124.318 80.192 123.694 80.304V83.968ZM127.198 76.048H129.646V80.224H126.062C126.542 79.776 126.846 79.088 126.958 78.144L127.198 76.048ZM137.389 82.192C139.949 82.192 141.485 80.336 141.485 78.128C141.485 75.936 139.949 74.08 137.389 74.08C134.845 74.08 133.309 75.936 133.309 78.128C133.309 80.336 134.845 82.192 137.389 82.192ZM137.389 80.384C136.125 80.384 135.421 79.344 135.421 78.128C135.421 76.928 136.125 75.888 137.389 75.888C138.653 75.888 139.373 76.928 139.373 78.128C139.373 79.344 138.653 80.384 137.389 80.384ZM148.032 82C149.584 82 150.416 81.072 150.416 79.904C150.416 78.976 149.792 78.208 148.944 78.016C149.664 77.808 150.256 77.184 150.256 76.256C150.256 75.216 149.456 74.272 147.888 74.272H142.992V82H148.032ZM147.536 80.336H145.024V78.896H147.536C148.048 78.896 148.336 79.232 148.336 79.616C148.336 80.064 148.032 80.336 147.536 80.336ZM147.472 77.232H145.024V75.936H147.472C147.92 75.936 148.192 76.208 148.192 76.592C148.192 76.944 147.92 77.232 147.472 77.232ZM159.039 82V77.008C159.039 74.784 157.423 74.08 155.663 74.08C154.447 74.08 153.231 74.464 152.287 75.296L153.055 76.656C153.711 76.048 154.479 75.744 155.311 75.744C156.335 75.744 157.007 76.256 157.007 77.04V78.08C156.495 77.472 155.583 77.136 154.559 77.136C153.327 77.136 151.871 77.824 151.871 79.632C151.871 81.36 153.327 82.192 154.559 82.192C155.567 82.192 156.479 81.824 157.007 81.2V82H159.039ZM155.375 80.816C154.575 80.816 153.919 80.4 153.919 79.68C153.919 78.928 154.575 78.512 155.375 78.512C156.031 78.512 156.671 78.736 157.007 79.184V80.144C156.671 80.592 156.031 80.816 155.375 80.816ZM163.087 82V78.912H166.287V82H168.319V74.272H166.287V77.136H163.087V74.272H161.055V82H163.087ZM172.288 82L175.568 77.152V82H177.6V74.272H175.552L172.368 78.944V74.272H170.336V82H172.288ZM181.665 82L183.185 79.344H184.769V82H186.801V74.272H182.113C180.401 74.272 179.441 75.44 179.441 76.8C179.441 78.176 180.273 78.976 181.153 79.2L179.361 82H181.665ZM182.433 77.648C181.857 77.648 181.505 77.296 181.505 76.8C181.505 76.32 181.873 75.984 182.433 75.984H184.769V77.648H182.433ZM192.163 83.968H194.211V82H198.963V83.968H200.995V80.224H200.147V74.272H193.891L193.395 78.016C193.155 79.888 192.787 80.192 192.163 80.304V83.968ZM195.667 76.048H198.115V80.224H194.531C195.011 79.776 195.315 79.088 195.427 78.144L195.667 76.048ZM201.554 82.192C203.522 82.192 204.482 80.928 204.802 78.256L205.058 76.048H207.506V82H209.538V74.272H203.282L202.786 78.016C202.546 79.888 202.178 80.528 201.554 80.528V82.192ZM213.603 82L215.123 79.344H216.707V82H218.739V74.272H214.051C212.339 74.272 211.379 75.44 211.379 76.8C211.379 78.176 212.211 78.976 213.091 79.2L211.299 82H213.603ZM214.371 77.648C213.795 77.648 213.443 77.296 213.443 76.8C213.443 76.32 213.811 75.984 214.371 75.984H216.707V77.648H214.371ZM233.957 82V74.272H231.268L229.397 78.88L227.493 74.272H224.821V82H226.852V76.976L228.932 82H229.86L231.925 76.976V82H233.957ZM242.649 82V77.008C242.649 74.784 241.033 74.08 239.273 74.08C238.057 74.08 236.841 74.464 235.897 75.296L236.665 76.656C237.321 76.048 238.089 75.744 238.921 75.744C239.945 75.744 240.617 76.256 240.617 77.04V78.08C240.105 77.472 239.193 77.136 238.169 77.136C236.937 77.136 235.481 77.824 235.481 79.632C235.481 81.36 236.937 82.192 238.169 82.192C239.177 82.192 240.089 81.824 240.617 81.2V82H242.649ZM238.985 80.816C238.185 80.816 237.529 80.4 237.529 79.68C237.529 78.928 238.185 78.512 238.985 78.512C239.641 78.512 240.281 78.736 240.617 79.184V80.144C240.281 80.592 239.641 80.816 238.985 80.816ZM246.616 82L249.896 77.152V82H251.928V74.272H249.88L246.696 78.944V74.272H244.664V82H246.616ZM251.096 72.096L250.2 71.344C249.752 71.968 249.096 72.336 248.296 72.336C247.464 72.336 246.808 71.952 246.376 71.344L245.48 72.096C246.136 72.96 247.16 73.504 248.296 73.504C249.448 73.504 250.456 72.96 251.096 72.096ZM255.977 82V78.912H259.177V82H261.21V74.272H259.177V77.136H255.977V74.272H253.946V82H255.977ZM265.179 82L268.459 77.152V82H270.491V74.272H268.443L265.259 78.944V74.272H263.227V82H265.179ZM274.54 82V78.912H277.74V82H279.772V74.272H277.74V77.136H274.54V74.272H272.508V82H274.54ZM287.757 74.272H281.789V82H283.821V76.048H287.757V74.272ZM295.727 82V77.008C295.727 74.784 294.111 74.08 292.351 74.08C291.135 74.08 289.919 74.464 288.975 75.296L289.743 76.656C290.399 76.048 291.167 75.744 291.999 75.744C293.023 75.744 293.695 76.256 293.695 77.04V78.08C293.183 77.472 292.271 77.136 291.247 77.136C290.015 77.136 288.559 77.824 288.559 79.632C288.559 81.36 290.015 82.192 291.247 82.192C292.255 82.192 293.167 81.824 293.695 81.2V82H295.727ZM292.063 80.816C291.263 80.816 290.607 80.4 290.607 79.68C290.607 78.928 291.263 78.512 292.063 78.512C292.719 78.512 293.359 78.736 293.695 79.184V80.144C293.359 80.592 292.719 80.816 292.063 80.816Z" fill="#333333"/>
<path d="M20.248 189L25.336 181.848V189H27.608V178.328H25.272L20.328 185.224V178.328H18.056V189H20.248ZM31.6962 189V185.912H34.8962V189H36.9283V181.272H34.8962V184.136H31.6962V181.272H29.6643V189H31.6962ZM43.9855 189C45.5375 189 46.3695 188.072 46.3695 186.904C46.3695 185.976 45.7455 185.208 44.8975 185.016C45.6175 184.808 46.2095 184.184 46.2095 183.256C46.2095 182.216 45.4095 181.272 43.8415 181.272H38.9455V189H43.9855ZM43.4895 187.336H40.9775V185.896H43.4895C44.0015 185.896 44.2895 186.232 44.2895 186.616C44.2895 187.064 43.9855 187.336 43.4895 187.336ZM43.4255 184.232H40.9775V182.936H43.4255C43.8735 182.936 44.1455 183.208 44.1455 183.592C44.1455 183.944 43.8735 184.232 43.4255 184.232ZM51.9525 189.192C53.1525 189.192 54.3685 188.824 55.1365 188.12L54.2405 186.808C53.7445 187.288 52.8325 187.576 52.1765 187.576C50.8645 187.576 50.0805 186.76 49.9525 185.784H55.6965V185.336C55.6965 182.808 54.1285 181.08 51.8245 181.08C49.4725 181.08 47.8245 182.888 47.8245 185.128C47.8245 187.608 49.6005 189.192 51.9525 189.192ZM53.7285 184.408H49.9205C50.0165 183.64 50.5605 182.696 51.8245 182.696C53.1685 182.696 53.6805 183.672 53.7285 184.408ZM60.7642 189.192C62.3482 189.192 63.3082 188.504 63.8203 187.784L62.4922 186.552C62.1242 187.064 61.5642 187.384 60.8602 187.384C59.6282 187.384 58.7643 186.472 58.7643 185.128C58.7643 183.784 59.6282 182.888 60.8602 182.888C61.5642 182.888 62.1242 183.176 62.4922 183.72L63.8203 182.472C63.3082 181.768 62.3482 181.08 60.7642 181.08C58.3802 181.08 56.6683 182.76 56.6683 185.128C56.6683 187.512 58.3802 189.192 60.7642 189.192ZM68.6206 189V183.048H70.7806V181.272H64.4126V183.048H66.5726V189H68.6206ZM74.0069 189L77.2869 184.152V189H79.3189V181.272H77.2709L74.0869 185.944V181.272H72.0549V189H74.0069ZM87.4161 190.968H89.4481V187.224H88.6001V181.272H86.5681V187.224H83.3681V181.272H81.3361V189H87.4161V190.968ZM92.6788 189L95.9587 184.152V189H97.9908V181.272H95.9427L92.7587 185.944V181.272H90.7268V189H92.6788ZM103.592 189.192C106.152 189.192 107.688 187.336 107.688 185.128C107.688 182.936 106.152 181.08 103.592 181.08C101.048 181.08 99.512 182.936 99.512 185.128C99.512 187.336 101.048 189.192 103.592 189.192ZM103.592 187.384C102.328 187.384 101.624 186.344 101.624 185.128C101.624 183.928 102.328 182.888 103.592 182.888C104.856 182.888 105.576 183.928 105.576 185.128C105.576 186.344 104.856 187.384 103.592 187.384ZM111.227 189V185.912H114.427V189H116.46V181.272H114.427V184.136H111.227V181.272H109.196V189H111.227ZM118.477 181.272V189H123.149C124.877 189 125.837 187.832 125.837 186.456C125.837 185.096 124.941 183.928 123.149 183.928H120.509V181.272H118.477ZM122.845 185.624C123.421 185.624 123.757 185.976 123.757 186.456C123.757 186.936 123.421 187.288 122.845 187.288H120.509V185.624H122.845ZM128.893 189V181.272H126.845V189H128.893ZM134.531 189.192C135.731 189.192 136.947 188.824 137.715 188.12L136.819 186.808C136.323 187.288 135.411 187.576 134.755 187.576C133.443 187.576 132.659 186.76 132.531 185.784H138.275V185.336C138.275 182.808 136.707 181.08 134.403 181.08C132.051 181.08 130.403 182.888 130.403 185.128C130.403 187.608 132.179 189.192 134.531 189.192ZM136.307 184.408H132.499C132.595 183.64 133.139 182.696 134.403 182.696C135.747 182.696 136.259 183.672 136.307 184.408ZM25.272 208V200.272H18.008V208H20.04V202.048H23.24V208H25.272ZM31.7052 208.192C33.6892 208.192 35.1292 206.704 35.1292 204.128C35.1292 201.552 33.6892 200.08 31.7052 200.08C30.7613 200.08 29.9132 200.496 29.3212 201.248V200.272H27.2893V210.944H29.3212V207.008C29.9453 207.808 30.7933 208.192 31.7052 208.192ZM31.0652 206.384C30.4092 206.384 29.6572 205.984 29.3212 205.504V202.768C29.6572 202.272 30.4092 201.888 31.0652 201.888C32.2333 201.888 33.0173 202.8 33.0173 204.128C33.0173 205.472 32.2333 206.384 31.0652 206.384ZM40.2014 208.192C42.7614 208.192 44.2974 206.336 44.2974 204.128C44.2974 201.936 42.7614 200.08 40.2014 200.08C37.6574 200.08 36.1214 201.936 36.1214 204.128C36.1214 206.336 37.6574 208.192 40.2014 208.192ZM40.2014 206.384C38.9374 206.384 38.2334 205.344 38.2334 204.128C38.2334 202.928 38.9374 201.888 40.2014 201.888C41.4654 201.888 42.1854 202.928 42.1854 204.128C42.1854 205.344 41.4654 206.384 40.2014 206.384ZM49.4369 208.192C50.6369 208.192 51.8529 207.824 52.6209 207.12L51.7249 205.808C51.2289 206.288 50.3169 206.576 49.6609 206.576C48.3489 206.576 47.5649 205.76 47.4369 204.784H53.1809V204.336C53.1809 201.808 51.6129 200.08 49.3089 200.08C46.9569 200.08 45.3089 201.888 45.3089 204.128C45.3089 206.608 47.0849 208.192 49.4369 208.192ZM51.2129 203.408H47.4049C47.5009 202.64 48.0449 201.696 49.3089 201.696C50.6529 201.696 51.1649 202.672 51.2129 203.408ZM62.2006 208L59.0486 203.776L62.1046 200.272H59.6086L56.6806 203.712V200.272H54.6486V208H56.6806V206.016L57.6086 205.024L59.6566 208H62.2006ZM66.6831 208V202.048H68.8431V200.272H62.4751V202.048H64.6351V208H66.6831ZM70.1174 200.272V208H74.7894C76.5174 208 77.4774 206.832 77.4774 205.456C77.4774 204.096 76.5814 202.928 74.7894 202.928H72.1494V200.272H70.1174ZM74.4854 204.624C75.0614 204.624 75.3974 204.976 75.3974 205.456C75.3974 205.936 75.0614 206.288 74.4854 206.288H72.1494V204.624H74.4854ZM80.5334 208V200.272H78.4854V208H80.5334ZM91.673 208C93.225 208 94.057 207.072 94.057 205.904C94.057 204.976 93.433 204.208 92.585 204.016C93.305 203.808 93.897 203.184 93.897 202.256C93.897 201.216 93.097 200.272 91.529 200.272H86.633V208H91.673ZM91.177 206.336H88.665V204.896H91.177C91.689 204.896 91.977 205.232 91.977 205.616C91.977 206.064 91.673 206.336 91.177 206.336ZM91.113 203.232H88.665V201.936H91.113C91.561 201.936 91.833 202.208 91.833 202.592C91.833 202.944 91.561 203.232 91.113 203.232ZM103.686 208.192C106.246 208.192 107.782 206.336 107.782 204.128C107.782 201.936 106.246 200.08 103.686 200.08C101.142 200.08 99.6058 201.936 99.6058 204.128C99.6058 206.336 101.142 208.192 103.686 208.192ZM103.686 206.384C102.422 206.384 101.718 205.344 101.718 204.128C101.718 202.928 102.422 201.888 103.686 201.888C104.95 201.888 105.67 202.928 105.67 204.128C105.67 205.344 104.95 206.384 103.686 206.384ZM112.873 206.384C111.609 206.384 110.905 205.344 110.905 204.096C110.905 202.928 111.609 201.888 112.873 201.888C114.137 201.888 114.857 202.928 114.857 204.096C114.857 205.344 114.137 206.384 112.873 206.384ZM112.873 208.192C115.449 208.192 116.953 206.288 116.953 204.112C116.953 201.968 115.513 200.08 113.305 200.08C112.233 200.08 111.289 200.528 110.665 201.344C110.873 200.448 111.625 199.648 113.449 199.408C114.713 199.248 116.665 198.832 116.665 197.328H114.553C114.553 197.6 114.105 197.792 112.809 197.984C110.153 198.336 108.793 200.016 108.793 203.776C108.793 206.288 110.297 208.192 112.873 208.192ZM117.804 208.192C119.772 208.192 120.732 206.928 121.052 204.256L121.308 202.048H123.756V208H125.788V200.272H119.532L119.036 204.016C118.796 205.888 118.428 206.528 117.804 206.528V208.192ZM134.477 208V203.008C134.477 200.784 132.861 200.08 131.101 200.08C129.885 200.08 128.669 200.464 127.725 201.296L128.493 202.656C129.149 202.048 129.917 201.744 130.749 201.744C131.773 201.744 132.445 202.256 132.445 203.04V204.08C131.933 203.472 131.021 203.136 129.997 203.136C128.765 203.136 127.309 203.824 127.309 205.632C127.309 207.36 128.765 208.192 129.997 208.192C131.005 208.192 131.917 207.824 132.445 207.2V208H134.477ZM130.813 206.816C130.013 206.816 129.357 206.4 129.357 205.68C129.357 204.928 130.013 204.512 130.813 204.512C131.469 204.512 132.109 204.736 132.445 205.184V206.144C132.109 206.592 131.469 206.816 130.813 206.816ZM140.092 208.192C141.676 208.192 142.636 207.504 143.148 206.784L141.82 205.552C141.452 206.064 140.892 206.384 140.188 206.384C138.956 206.384 138.092 205.472 138.092 204.128C138.092 202.784 138.956 201.888 140.188 201.888C140.892 201.888 141.452 202.176 141.82 202.72L143.148 201.472C142.636 200.768 141.676 200.08 140.092 200.08C137.708 200.08 135.996 201.76 135.996 204.128C135.996 206.512 137.708 208.192 140.092 208.192ZM147.949 208V202.048H150.109V200.272H143.741V202.048H145.901V208H147.949ZM153.335 208L156.615 203.152V208H158.647V200.272H156.599L153.415 204.944V200.272H151.383V208H153.335ZM23.848 228C25.88 228 26.952 226.72 26.952 225.12C26.952 223.776 26.04 222.672 24.904 222.496C25.912 222.288 26.744 221.392 26.744 220.048C26.744 218.624 25.704 217.328 23.672 217.328H18.056V228H23.848ZM23.176 221.6H20.328V219.28H23.176C23.944 219.28 24.424 219.776 24.424 220.448C24.424 221.12 23.944 221.6 23.176 221.6ZM23.256 226.032H20.328V223.552H23.256C24.152 223.552 24.632 224.128 24.632 224.8C24.632 225.568 24.12 226.032 23.256 226.032ZM30.6494 228V217.328H28.6174V228H30.6494ZM36.2483 228.192C38.8082 228.192 40.3442 226.336 40.3442 224.128C40.3442 221.936 38.8082 220.08 36.2483 220.08C33.7043 220.08 32.1683 221.936 32.1683 224.128C32.1683 226.336 33.7043 228.192 36.2483 228.192ZM36.2483 226.384C34.9843 226.384 34.2803 225.344 34.2803 224.128C34.2803 222.928 34.9843 221.888 36.2483 221.888C37.5122 221.888 38.2323 222.928 38.2323 224.128C38.2323 225.344 37.5122 226.384 36.2483 226.384ZM45.4517 228.192C47.0357 228.192 47.9957 227.504 48.5078 226.784L47.1797 225.552C46.8117 226.064 46.2517 226.384 45.5477 226.384C44.3157 226.384 43.4518 225.472 43.4518 224.128C43.4518 222.784 44.3157 221.888 45.5477 221.888C46.2517 221.888 46.8117 222.176 47.1797 222.72L48.5078 221.472C47.9957 220.768 47.0357 220.08 45.4517 220.08C43.0677 220.08 41.3558 221.76 41.3558 224.128C41.3558 226.512 43.0677 228.192 45.4517 228.192ZM57.3881 228L54.2361 223.776L57.2921 220.272H54.7961L51.8681 223.712V217.328H49.8361V228H51.8681V226.016L52.7961 225.024L54.8441 228H57.3881ZM61.9049 228.192C63.4889 228.192 64.4489 227.504 64.9609 226.784L63.6329 225.552C63.2649 226.064 62.7049 226.384 62.0009 226.384C60.7689 226.384 59.9049 225.472 59.9049 224.128C59.9049 222.784 60.7689 221.888 62.0009 221.888C62.7049 221.888 63.2649 222.176 63.6329 222.72L64.9609 221.472C64.4489 220.768 63.4889 220.08 61.9049 220.08C59.5209 220.08 57.8089 221.76 57.8089 224.128C57.8089 226.512 59.5209 228.192 61.9049 228.192ZM73.5533 228V222.512C73.5533 221.008 72.7372 220.08 71.0413 220.08C69.7772 220.08 68.8173 220.688 68.3212 221.28V217.328H66.2893V228H68.3212V222.8C68.6732 222.336 69.2972 221.888 70.0813 221.888C70.9612 221.888 71.5212 222.224 71.5212 223.296V228H73.5533ZM82.2425 228V223.008C82.2425 220.784 80.6265 220.08 78.8665 220.08C77.6505 220.08 76.4345 220.464 75.4905 221.296L76.2585 222.656C76.9145 222.048 77.6825 221.744 78.5145 221.744C79.5385 221.744 80.2105 222.256 80.2105 223.04V224.08C79.6985 223.472 78.7865 223.136 77.7625 223.136C76.5305 223.136 75.0745 223.824 75.0745 225.632C75.0745 227.36 76.5305 228.192 77.7625 228.192C78.7705 228.192 79.6825 227.824 80.2105 227.2V228H82.2425ZM78.5785 226.816C77.7785 226.816 77.1225 226.4 77.1225 225.68C77.1225 224.928 77.7785 224.512 78.5785 224.512C79.2345 224.512 79.8745 224.736 80.2105 225.184V226.144C79.8745 226.592 79.2345 226.816 78.5785 226.816ZM85.266 219.44C85.938 219.44 86.482 218.896 86.482 218.224C86.482 217.552 85.938 217.024 85.266 217.024C84.61 217.024 84.05 217.552 84.05 218.224C84.05 218.896 84.61 219.44 85.266 219.44ZM86.29 228V220.272H84.258V228H86.29ZM95.5529 228V222.544C95.5529 221.04 94.7369 220.08 93.0409 220.08C91.7769 220.08 90.8329 220.688 90.3369 221.28V220.272H88.3049V228H90.3369V222.8C90.6729 222.336 91.2969 221.888 92.0969 221.888C92.9609 221.888 93.5209 222.256 93.5209 223.328V228H95.5529Z" fill="#333333"/>
<path d="M252.906 272V268.208H255.626C257.93 268.208 259.21 266.624 259.21 264.768C259.21 262.896 257.946 261.328 255.626 261.328H250.634V272H252.906ZM255.322 266.208H252.906V263.328H255.322C256.218 263.328 256.89 263.872 256.89 264.768C256.89 265.648 256.218 266.208 255.322 266.208ZM266.93 272V267.008C266.93 264.784 265.314 264.08 263.554 264.08C262.338 264.08 261.122 264.464 260.178 265.296L260.946 266.656C261.602 266.048 262.37 265.744 263.202 265.744C264.226 265.744 264.898 266.256 264.898 267.04V268.08C264.386 267.472 263.474 267.136 262.45 267.136C261.218 267.136 259.762 267.824 259.762 269.632C259.762 271.36 261.218 272.192 262.45 272.192C263.458 272.192 264.37 271.824 264.898 271.2V272H266.93ZM263.266 270.816C262.466 270.816 261.81 270.4 261.81 269.68C261.81 268.928 262.466 268.512 263.266 268.512C263.922 268.512 264.562 268.736 264.898 269.184V270.144C264.562 270.592 263.922 270.816 263.266 270.816ZM271.761 272.192C274.065 272.192 275.49 271.232 275.49 269.872C275.49 268.704 274.258 268.096 273.313 268.032C274.338 267.872 275.33 267.2 275.33 266.208C275.33 264.896 273.97 264.08 271.553 264.096C270.145 264.096 269.026 264.624 268.273 265.376L269.265 266.576C269.873 265.984 270.658 265.696 271.665 265.696C272.577 265.696 273.218 266.016 273.218 266.48C273.218 267.024 272.689 267.312 271.634 267.312H270.049V268.88H271.634C272.689 268.88 273.361 269.152 273.361 269.744C273.361 270.24 272.801 270.576 271.761 270.576C270.833 270.576 269.809 270.304 269.089 269.696L268.162 270.96C268.914 271.696 270.161 272.192 271.761 272.192ZM286.144 272V264.272H283.456L281.584 268.88L279.68 264.272H277.008V272H279.04V266.976L281.12 272H282.048L284.112 266.976V272H286.144ZM291.796 272.192C292.996 272.192 294.212 271.824 294.98 271.12L294.084 269.808C293.588 270.288 292.676 270.576 292.02 270.576C290.708 270.576 289.924 269.76 289.796 268.784H295.54V268.336C295.54 265.808 293.972 264.08 291.668 264.08C289.316 264.08 287.668 265.888 287.668 268.128C287.668 270.608 289.444 272.192 291.796 272.192ZM293.572 267.408H289.764C289.86 266.64 290.404 265.696 291.668 265.696C293.012 265.696 293.524 266.672 293.572 267.408ZM306.112 264.272V270.224H303.6V264.272H301.568V270.224H299.04V264.272H297.008V272H307.072V273.968H309.12V270.224H308.16V264.272H306.112ZM314.015 272.192C315.215 272.192 316.431 271.824 317.199 271.12L316.303 269.808C315.807 270.288 314.895 270.576 314.239 270.576C312.927 270.576 312.143 269.76 312.015 268.784H317.759V268.336C317.759 265.808 316.191 264.08 313.887 264.08C311.535 264.08 309.887 265.888 309.887 268.128C309.887 270.608 311.663 272.192 314.015 272.192ZM315.791 267.408H311.983C312.079 266.64 312.623 265.696 313.887 265.696C315.231 265.696 315.743 266.672 315.791 267.408ZM321.259 272V268.912H324.459V272H326.491V264.272H324.459V267.136H321.259V264.272H319.227V272H321.259ZM330.46 272L333.74 267.152V272H335.772V264.272H333.724L330.54 268.944V264.272H328.508V272H330.46ZM341.421 272.192C342.621 272.192 343.837 271.824 344.605 271.12L343.709 269.808C343.213 270.288 342.301 270.576 341.645 270.576C340.333 270.576 339.549 269.76 339.421 268.784H345.165V268.336C345.165 265.808 343.597 264.08 341.293 264.08C338.941 264.08 337.293 265.888 337.293 268.128C337.293 270.608 339.069 272.192 341.421 272.192ZM343.197 267.408H339.389C339.485 266.64 340.029 265.696 341.293 265.696C342.637 265.696 343.149 266.672 343.197 267.408ZM352.679 272L355.959 267.152V272H357.991V264.272H355.943L352.759 268.944V264.272H350.727V272H352.679ZM173.717 291.192C176.277 291.192 177.813 289.336 177.813 287.128C177.813 284.936 176.277 283.08 173.717 283.08C171.173 283.08 169.637 284.936 169.637 287.128C169.637 289.336 171.173 291.192 173.717 291.192ZM173.717 289.384C172.453 289.384 171.749 288.344 171.749 287.128C171.749 285.928 172.453 284.888 173.717 284.888C174.981 284.888 175.701 285.928 175.701 287.128C175.701 288.344 174.981 289.384 173.717 289.384ZM182.905 289.384C181.641 289.384 180.937 288.344 180.937 287.096C180.937 285.928 181.641 284.888 182.905 284.888C184.168 284.888 184.889 285.928 184.889 287.096C184.889 288.344 184.168 289.384 182.905 289.384ZM182.905 291.192C185.481 291.192 186.984 289.288 186.984 287.112C186.984 284.968 185.544 283.08 183.337 283.08C182.264 283.08 181.32 283.528 180.697 284.344C180.905 283.448 181.657 282.648 183.481 282.408C184.745 282.248 186.696 281.832 186.696 280.328H184.584C184.584 280.6 184.136 280.792 182.84 280.984C180.184 281.336 178.825 283.016 178.825 286.776C178.825 289.288 180.329 291.192 182.905 291.192ZM192.155 291.192C193.739 291.192 194.699 290.504 195.211 289.784L193.883 288.552C193.515 289.064 192.955 289.384 192.251 289.384C191.019 289.384 190.155 288.472 190.155 287.128C190.155 285.784 191.019 284.888 192.251 284.888C192.955 284.888 193.515 285.176 193.883 285.72L195.211 284.472C194.699 283.768 193.739 283.08 192.155 283.08C189.771 283.08 188.059 284.76 188.059 287.128C188.059 289.512 189.771 291.192 192.155 291.192ZM195.819 291.192C197.787 291.192 198.747 289.928 199.067 287.256L199.323 285.048H201.771V291H203.803V283.272H197.547L197.051 287.016C196.811 288.888 196.443 289.528 195.819 289.528V291.192ZM205.549 294.024C205.804 294.088 206.316 294.136 206.556 294.136C207.885 294.104 208.909 293.72 209.484 292.264L213.116 283.272H210.924L208.909 288.648L206.892 283.272H204.716L207.852 291.112L207.565 291.768C207.372 292.184 207.02 292.328 206.492 292.328C206.301 292.328 206.028 292.28 205.852 292.2L205.549 294.024ZM215.56 291L217.624 288.024L217.992 288.424V291H220.04V288.424L220.408 288.024L222.472 291H225L221.864 286.776L224.904 283.272H222.408L220.04 286.072V283.272H217.992V286.072L215.624 283.272H213.128L216.168 286.776L213.032 291H215.56ZM227.976 291L231.256 286.152V291H233.288V283.272H231.24L228.056 287.944V283.272H226.024V291H227.976ZM240.345 291C241.897 291 242.729 290.072 242.729 288.904C242.729 287.976 242.105 287.208 241.257 287.016C241.977 286.808 242.569 286.184 242.569 285.256C242.569 284.216 241.769 283.272 240.201 283.272H235.305V291H240.345ZM239.849 289.336H237.337V287.896H239.849C240.361 287.896 240.649 288.232 240.649 288.616C240.649 289.064 240.345 289.336 239.849 289.336ZM239.785 286.232H237.337V284.936H239.785C240.233 284.936 240.505 285.208 240.505 285.592C240.505 285.944 240.233 286.232 239.785 286.232ZM251.352 291V286.008C251.352 283.784 249.736 283.08 247.976 283.08C246.76 283.08 245.544 283.464 244.6 284.296L245.368 285.656C246.024 285.048 246.792 284.744 247.624 284.744C248.648 284.744 249.32 285.256 249.32 286.04V287.08C248.808 286.472 247.896 286.136 246.872 286.136C245.64 286.136 244.184 286.824 244.184 288.632C244.184 290.36 245.64 291.192 246.872 291.192C247.88 291.192 248.792 290.824 249.32 290.2V291H251.352ZM247.688 289.816C246.888 289.816 246.232 289.4 246.232 288.68C246.232 287.928 246.888 287.512 247.688 287.512C248.344 287.512 248.984 287.736 249.32 288.184V289.144C248.984 289.592 248.344 289.816 247.688 289.816ZM255.399 291V287.912H258.599V291H260.631V283.272H258.599V286.136H255.399V283.272H253.367V291H255.399ZM264.601 291L267.881 286.152V291H269.913V283.272H267.865L264.681 287.944V283.272H262.649V291H264.601ZM275.562 291.192C276.762 291.192 277.978 290.824 278.746 290.12L277.85 288.808C277.354 289.288 276.442 289.576 275.786 289.576C274.474 289.576 273.69 288.76 273.562 287.784H279.306V287.336C279.306 284.808 277.738 283.08 275.434 283.08C273.082 283.08 271.434 284.888 271.434 287.128C271.434 289.608 273.21 291.192 275.562 291.192ZM277.338 286.408H273.53C273.626 285.64 274.17 284.696 275.434 284.696C276.778 284.696 277.29 285.672 277.338 286.408ZM294.003 291V283.272H291.315L289.443 287.88L287.539 283.272H284.867V291H286.899V285.976L288.979 291H289.907L291.971 285.976V291H294.003ZM302.696 291V286.008C302.696 283.784 301.08 283.08 299.32 283.08C298.104 283.08 296.888 283.464 295.944 284.296L296.712 285.656C297.368 285.048 298.136 284.744 298.968 284.744C299.992 284.744 300.664 285.256 300.664 286.04V287.08C300.152 286.472 299.24 286.136 298.216 286.136C296.984 286.136 295.528 286.824 295.528 288.632C295.528 290.36 296.984 291.192 298.216 291.192C299.224 291.192 300.136 290.824 300.664 290.2V291H302.696ZM299.032 289.816C298.232 289.816 297.576 289.4 297.576 288.68C297.576 287.928 298.232 287.512 299.032 287.512C299.688 287.512 300.328 287.736 300.664 288.184V289.144C300.328 289.592 299.688 289.816 299.032 289.816ZM306.663 291L309.943 286.152V291H311.975V283.272H309.927L306.743 287.944V283.272H304.711V291H306.663ZM311.143 281.096L310.247 280.344C309.799 280.968 309.143 281.336 308.343 281.336C307.511 281.336 306.855 280.952 306.423 280.344L305.527 281.096C306.183 281.96 307.207 282.504 308.343 282.504C309.495 282.504 310.503 281.96 311.143 281.096ZM316.024 291V287.912H319.224V291H321.256V283.272H319.224V286.136H316.024V283.272H313.992V291H316.024ZM326.906 291.192C328.106 291.192 329.322 290.824 330.09 290.12L329.194 288.808C328.698 289.288 327.786 289.576 327.13 289.576C325.818 289.576 325.034 288.76 324.906 287.784H330.65V287.336C330.65 284.808 329.082 283.08 326.778 283.08C324.426 283.08 322.778 284.888 322.778 287.128C322.778 289.608 324.554 291.192 326.906 291.192ZM328.682 286.408H324.874C324.97 285.64 325.514 284.696 326.778 284.696C328.122 284.696 328.634 285.672 328.682 286.408ZM336.533 291.192C338.517 291.192 339.957 289.704 339.957 287.128C339.957 284.552 338.517 283.08 336.533 283.08C335.589 283.08 334.741 283.496 334.149 284.248V283.272H332.117V293.944H334.149V290.008C334.773 290.808 335.621 291.192 336.533 291.192ZM335.893 289.384C335.237 289.384 334.485 288.984 334.149 288.504V285.768C334.485 285.272 335.237 284.888 335.893 284.888C337.061 284.888 337.845 285.8 337.845 287.128C337.845 288.472 337.061 289.384 335.893 289.384ZM345.03 291.192C347.589 291.192 349.125 289.336 349.125 287.128C349.125 284.936 347.589 283.08 345.03 283.08C342.486 283.08 340.95 284.936 340.95 287.128C340.95 289.336 342.486 291.192 345.03 291.192ZM345.03 289.384C343.766 289.384 343.062 288.344 343.062 287.128C343.062 285.928 343.766 284.888 345.03 284.888C346.293 284.888 347.014 285.928 347.014 287.128C347.014 288.344 346.293 289.384 345.03 289.384ZM355.673 291C357.225 291 358.057 290.072 358.057 288.904C358.057 287.976 357.433 287.208 356.585 287.016C357.305 286.808 357.897 286.184 357.897 285.256C357.897 284.216 357.097 283.272 355.529 283.272H350.633V291H355.673ZM355.177 289.336H352.665V287.896H355.177C355.689 287.896 355.977 288.232 355.977 288.616C355.977 289.064 355.673 289.336 355.177 289.336ZM355.113 286.232H352.665V284.936H355.113C355.561 284.936 355.833 285.208 355.833 285.592C355.833 285.944 355.561 286.232 355.113 286.232ZM156.204 311C157.756 311 158.588 310.072 158.588 308.904C158.588 307.976 157.964 307.208 157.116 307.016C157.836 306.808 158.428 306.184 158.428 305.256C158.428 304.216 157.628 303.272 156.06 303.272H151.164V311H156.204ZM155.708 309.336H153.196V307.896H155.708C156.22 307.896 156.508 308.232 156.508 308.616C156.508 309.064 156.204 309.336 155.708 309.336ZM155.644 306.232H153.196V304.936H155.644C156.092 304.936 156.364 305.208 156.364 305.592C156.364 305.944 156.092 306.232 155.644 306.232ZM168.233 311.192C169.817 311.192 170.777 310.504 171.289 309.784L169.961 308.552C169.593 309.064 169.033 309.384 168.329 309.384C167.097 309.384 166.233 308.472 166.233 307.128C166.233 305.784 167.097 304.888 168.329 304.888C169.033 304.888 169.593 305.176 169.961 305.72L171.289 304.472C170.777 303.768 169.817 303.08 168.233 303.08C165.849 303.08 164.137 304.76 164.137 307.128C164.137 309.512 165.849 311.192 168.233 311.192ZM176.201 311.192C178.761 311.192 180.297 309.336 180.297 307.128C180.297 304.936 178.761 303.08 176.201 303.08C173.657 303.08 172.121 304.936 172.121 307.128C172.121 309.336 173.657 311.192 176.201 311.192ZM176.201 309.384C174.937 309.384 174.233 308.344 174.233 307.128C174.233 305.928 174.937 304.888 176.201 304.888C177.465 304.888 178.185 305.928 178.185 307.128C178.185 308.344 177.465 309.384 176.201 309.384ZM185.389 309.384C184.125 309.384 183.421 308.344 183.421 307.096C183.421 305.928 184.125 304.888 185.389 304.888C186.653 304.888 187.373 305.928 187.373 307.096C187.373 308.344 186.653 309.384 185.389 309.384ZM185.389 311.192C187.965 311.192 189.469 309.288 189.469 307.112C189.469 304.968 188.029 303.08 185.821 303.08C184.749 303.08 183.805 303.528 183.181 304.344C183.389 303.448 184.141 302.648 185.965 302.408C187.229 302.248 189.181 301.832 189.181 300.328H187.069C187.069 300.6 186.621 300.792 185.325 300.984C182.669 301.336 181.309 303.016 181.309 306.776C181.309 309.288 182.813 311.192 185.389 311.192ZM194.639 311.192C196.223 311.192 197.183 310.504 197.695 309.784L196.367 308.552C195.999 309.064 195.439 309.384 194.735 309.384C193.503 309.384 192.639 308.472 192.639 307.128C192.639 305.784 193.503 304.888 194.735 304.888C195.439 304.888 195.999 305.176 196.367 305.72L197.695 304.472C197.183 303.768 196.223 303.08 194.639 303.08C192.255 303.08 190.543 304.76 190.543 307.128C190.543 309.512 192.255 311.192 194.639 311.192ZM202.496 311V305.048H204.656V303.272H198.288V305.048H200.448V311H202.496ZM210.97 311C212.522 311 213.354 310.072 213.354 308.904C213.354 307.976 212.73 307.208 211.882 307.016C212.602 306.808 213.194 306.184 213.194 305.256C213.194 304.216 212.394 303.272 210.826 303.272H205.93V311H210.97ZM210.474 309.336H207.962V307.896H210.474C210.986 307.896 211.274 308.232 211.274 308.616C211.274 309.064 210.97 309.336 210.474 309.336ZM210.41 306.232H207.962V304.936H210.41C210.858 304.936 211.13 305.208 211.13 305.592C211.13 305.944 210.858 306.232 210.41 306.232ZM218.937 311.192C220.137 311.192 221.353 310.824 222.121 310.12L221.225 308.808C220.729 309.288 219.817 309.576 219.161 309.576C217.849 309.576 217.065 308.76 216.937 307.784H222.681V307.336C222.681 304.808 221.113 303.08 218.809 303.08C216.457 303.08 214.809 304.888 214.809 307.128C214.809 309.608 216.585 311.192 218.937 311.192ZM220.713 306.408H216.905C217.001 305.64 217.545 304.696 218.809 304.696C220.153 304.696 220.665 305.672 220.713 306.408ZM226.181 311V307.912H229.381V311H231.413V303.272H229.381V306.136H226.181V303.272H224.149V311H226.181ZM235.462 311V307.912H238.662V311H240.694V303.272H238.662V306.136H235.462V303.272H233.43V311H235.462ZM246.295 311.192C248.855 311.192 250.391 309.336 250.391 307.128C250.391 304.936 248.855 303.08 246.295 303.08C243.751 303.08 242.215 304.936 242.215 307.128C242.215 309.336 243.751 311.192 246.295 311.192ZM246.295 309.384C245.031 309.384 244.327 308.344 244.327 307.128C244.327 305.928 245.031 304.888 246.295 304.888C247.559 304.888 248.279 305.928 248.279 307.128C248.279 308.344 247.559 309.384 246.295 309.384ZM261.035 311V303.272H258.347L256.475 307.88L254.571 303.272H251.899V311H253.931V305.976L256.011 311H256.939L259.003 305.976V311H261.035ZM266.557 312.968H268.829V311H275.485V312.968H277.757V309H276.797V300.328H269.213L268.589 305.784C268.253 308.6 267.645 309.032 266.557 309.176V312.968ZM270.845 305.944L271.261 302.328H274.509V309H269.549C270.221 308.376 270.685 307.384 270.845 305.944ZM285.711 311V306.008C285.711 303.784 284.095 303.08 282.335 303.08C281.119 303.08 279.903 303.464 278.959 304.296L279.727 305.656C280.383 305.048 281.151 304.744 281.983 304.744C283.007 304.744 283.679 305.256 283.679 306.04V307.08C283.167 306.472 282.255 306.136 281.231 306.136C279.999 306.136 278.543 306.824 278.543 308.632C278.543 310.36 279.999 311.192 281.231 311.192C282.239 311.192 283.151 310.824 283.679 310.2V311H285.711ZM282.047 309.816C281.247 309.816 280.591 309.4 280.591 308.68C280.591 307.928 281.247 307.512 282.047 307.512C282.703 307.512 283.343 307.736 283.679 308.184V309.144C283.343 309.592 282.703 309.816 282.047 309.816ZM291.199 311V305.048H293.359V303.272H286.991V305.048H289.151V311H291.199ZM301.305 311V306.008C301.305 303.784 299.689 303.08 297.929 303.08C296.713 303.08 295.497 303.464 294.553 304.296L295.321 305.656C295.977 305.048 296.745 304.744 297.577 304.744C298.601 304.744 299.273 305.256 299.273 306.04V307.08C298.761 306.472 297.849 306.136 296.825 306.136C295.593 306.136 294.137 306.824 294.137 308.632C294.137 310.36 295.593 311.192 296.825 311.192C297.833 311.192 298.745 310.824 299.273 310.2V311H301.305ZM297.641 309.816C296.841 309.816 296.185 309.4 296.185 308.68C296.185 307.928 296.841 307.512 297.641 307.512C298.297 307.512 298.937 307.736 299.273 308.184V309.144C298.937 309.592 298.297 309.816 297.641 309.816ZM313.494 312.968H315.526V309.224H314.678V303.272H312.646V309.224H309.446V303.272H307.414V311H313.494V312.968ZM320.437 311.192C321.637 311.192 322.853 310.824 323.621 310.12L322.725 308.808C322.229 309.288 321.317 309.576 320.661 309.576C319.349 309.576 318.565 308.76 318.437 307.784H324.181V307.336C324.181 304.808 322.613 303.08 320.309 303.08C317.957 303.08 316.309 304.888 316.309 307.128C316.309 309.608 318.085 311.192 320.437 311.192ZM322.213 306.408H318.405C318.501 305.64 319.045 304.696 320.309 304.696C321.653 304.696 322.165 305.672 322.213 306.408ZM327.681 311V307.912H330.881V311H332.913V303.272H330.881V306.136H327.681V303.272H325.649V311H327.681ZM338.402 311V305.048H340.562V303.272H334.194V305.048H336.354V311H338.402ZM346.252 311.192C348.236 311.192 349.676 309.704 349.676 307.128C349.676 304.552 348.236 303.08 346.252 303.08C345.308 303.08 344.46 303.496 343.868 304.248V303.272H341.836V313.944H343.868V310.008C344.492 310.808 345.34 311.192 346.252 311.192ZM345.612 309.384C344.956 309.384 344.204 308.984 343.868 308.504V305.768C344.204 305.272 344.956 304.888 345.612 304.888C346.78 304.888 347.564 305.8 347.564 307.128C347.564 308.472 346.78 309.384 345.612 309.384ZM354.796 311.192C355.996 311.192 357.212 310.824 357.98 310.12L357.084 308.808C356.588 309.288 355.676 309.576 355.02 309.576C353.708 309.576 352.924 308.76 352.796 307.784H358.54V307.336C358.54 304.808 356.972 303.08 354.668 303.08C352.316 303.08 350.668 304.888 350.668 307.128C350.668 309.608 352.444 311.192 354.796 311.192ZM356.572 306.408H352.764C352.86 305.64 353.404 304.696 354.668 304.696C356.012 304.696 356.524 305.672 356.572 306.408Z" fill="#333333"/>
<path d="M117.643 453.264C120.591 453.264 122.241 451.79 122.241 449.854C122.241 445.564 115.949 446.884 115.949 445.3C115.949 444.706 116.609 444.244 117.621 444.244C118.919 444.244 120.129 444.794 120.767 445.476L121.889 443.562C120.833 442.726 119.403 442.11 117.599 442.11C114.805 442.11 113.243 443.672 113.243 445.454C113.243 449.634 119.557 448.204 119.557 449.964C119.557 450.624 118.985 451.108 117.775 451.108C116.455 451.108 114.871 450.382 114.101 449.656L112.891 451.614C114.013 452.648 115.795 453.264 117.643 453.264ZM125.685 441.23C126.609 441.23 127.357 440.482 127.357 439.558C127.357 438.634 126.609 437.908 125.685 437.908C124.783 437.908 124.013 438.634 124.013 439.558C124.013 440.482 124.783 441.23 125.685 441.23ZM127.093 453V442.374H124.299V453H127.093ZM145.858 453V445.322C145.858 443.144 144.692 442.11 142.734 442.11C141.106 442.11 139.698 443.078 139.082 444.046C138.686 442.836 137.696 442.11 136.134 442.11C134.506 442.11 133.098 443.122 132.658 443.76V442.374H129.864V453H132.658V445.85C133.076 445.256 133.89 444.596 134.858 444.596C136.002 444.596 136.442 445.3 136.442 446.29V453H139.258V445.828C139.654 445.256 140.468 444.596 141.458 444.596C142.602 444.596 143.042 445.3 143.042 446.29V453H145.858ZM152.954 457.312C155.572 457.312 158.696 456.322 158.696 452.274V442.374H155.88V443.738C155.022 442.66 153.878 442.11 152.602 442.11C149.918 442.11 147.916 444.046 147.916 447.522C147.916 451.064 149.94 452.934 152.602 452.934C153.9 452.934 155.044 452.318 155.88 451.262V452.34C155.88 454.43 154.296 455.024 152.954 455.024C151.612 455.024 150.49 454.65 149.632 453.704L148.378 455.728C149.72 456.894 151.128 457.312 152.954 457.312ZM153.482 450.448C151.898 450.448 150.798 449.348 150.798 447.522C150.798 445.696 151.898 444.596 153.482 444.596C154.406 444.596 155.418 445.102 155.88 445.806V449.238C155.418 449.92 154.406 450.448 153.482 450.448ZM170.641 453V446.136C170.641 443.078 168.419 442.11 165.999 442.11C164.327 442.11 162.655 442.638 161.357 443.782L162.413 445.652C163.315 444.816 164.371 444.398 165.515 444.398C166.923 444.398 167.847 445.102 167.847 446.18V447.61C167.143 446.774 165.889 446.312 164.481 446.312C162.787 446.312 160.785 447.258 160.785 449.744C160.785 452.12 162.787 453.264 164.481 453.264C165.867 453.264 167.121 452.758 167.847 451.9V453H170.641ZM165.603 451.372C164.503 451.372 163.601 450.8 163.601 449.81C163.601 448.776 164.503 448.204 165.603 448.204C166.505 448.204 167.385 448.512 167.847 449.128V450.448C167.385 451.064 166.505 451.372 165.603 451.372ZM179.484 453.264C182.212 453.264 184.192 451.218 184.192 447.676C184.192 444.134 182.212 442.11 179.484 442.11C178.186 442.11 177.02 442.682 176.206 443.716V442.374H173.412V457.048H176.206V451.636C177.064 452.736 178.23 453.264 179.484 453.264ZM178.604 450.778C177.702 450.778 176.668 450.228 176.206 449.568V445.806C176.668 445.124 177.702 444.596 178.604 444.596C180.21 444.596 181.288 445.85 181.288 447.676C181.288 449.524 180.21 450.778 178.604 450.778ZM191.167 453.264C194.687 453.264 196.799 450.712 196.799 447.676C196.799 444.662 194.687 442.11 191.167 442.11C187.669 442.11 185.557 444.662 185.557 447.676C185.557 450.712 187.669 453.264 191.167 453.264ZM191.167 450.778C189.429 450.778 188.461 449.348 188.461 447.676C188.461 446.026 189.429 444.596 191.167 444.596C192.905 444.596 193.895 446.026 193.895 447.676C193.895 449.348 192.905 450.778 191.167 450.778ZM203.799 453.264C207.319 453.264 209.431 450.712 209.431 447.676C209.431 444.662 207.319 442.11 203.799 442.11C200.301 442.11 198.189 444.662 198.189 447.676C198.189 450.712 200.301 453.264 203.799 453.264ZM203.799 450.778C202.061 450.778 201.093 449.348 201.093 447.676C201.093 446.026 202.061 444.596 203.799 444.596C205.537 444.596 206.527 446.026 206.527 447.676C206.527 449.348 205.537 450.778 203.799 450.778ZM214.298 453V438.326H211.504V453H214.298ZM218.499 453.242C219.467 453.242 220.281 452.428 220.281 451.46C220.281 450.492 219.467 449.678 218.499 449.678C217.531 449.678 216.717 450.492 216.717 451.46C216.717 452.428 217.531 453.242 218.499 453.242ZM227.562 453.264C229.74 453.264 231.06 452.318 231.764 451.328L229.938 449.634C229.432 450.338 228.662 450.778 227.694 450.778C226 450.778 224.812 449.524 224.812 447.676C224.812 445.828 226 444.596 227.694 444.596C228.662 444.596 229.432 444.992 229.938 445.74L231.764 444.024C231.06 443.056 229.74 442.11 227.562 442.11C224.284 442.11 221.93 444.42 221.93 447.676C221.93 450.954 224.284 453.264 227.562 453.264ZM238.518 453.264C242.038 453.264 244.15 450.712 244.15 447.676C244.15 444.662 242.038 442.11 238.518 442.11C235.02 442.11 232.908 444.662 232.908 447.676C232.908 450.712 235.02 453.264 238.518 453.264ZM238.518 450.778C236.78 450.778 235.812 449.348 235.812 447.676C235.812 446.026 236.78 444.596 238.518 444.596C240.256 444.596 241.246 446.026 241.246 447.676C241.246 449.348 240.256 450.778 238.518 450.778ZM262.217 453V445.322C262.217 443.144 261.051 442.11 259.093 442.11C257.465 442.11 256.057 443.078 255.441 444.046C255.045 442.836 254.055 442.11 252.493 442.11C250.865 442.11 249.457 443.122 249.017 443.76V442.374H246.223V453H249.017V445.85C249.435 445.256 250.249 444.596 251.217 444.596C252.361 444.596 252.801 445.3 252.801 446.29V453H255.617V445.828C256.013 445.256 256.827 444.596 257.817 444.596C258.961 444.596 259.401 445.3 259.401 446.29V453H262.217Z" fill="#1E5BAE"/>
<rect x="55.5" y="62.5" width="11" height="11" stroke="black" stroke-width="3"/>
<rect x="55.5" y="62.5" width="11" height="11" stroke="url(#paint0_linear_1869_7)" stroke-width="3"/>
<rect x="56.6154" y="63.6154" width="8.76923" height="8.76923" fill="url(#paint1_linear_1869_7)" stroke="#F4F8FA" stroke-width="2"/>
<rect x="18.5" y="155.5" width="11" height="11" stroke="black" stroke-width="3"/>
<rect x="18.5" y="155.5" width="11" height="11" stroke="url(#paint2_linear_1869_7)" stroke-width="3"/>
<rect x="19.6154" y="156.615" width="8.76923" height="8.76923" fill="url(#paint3_linear_1869_7)" stroke="#F4F8FA" stroke-width="2"/>
<rect x="18.5" y="240.5" width="11" height="11" stroke="black" stroke-width="3"/>
<rect x="18.5" y="240.5" width="11" height="11" stroke="url(#paint4_linear_1869_7)" stroke-width="3"/>
<rect x="19.6154" y="241.615" width="8.76923" height="8.76923" fill="url(#paint5_linear_1869_7)" stroke="#F4F8FA" stroke-width="2"/>
<rect x="345.5" y="240.5" width="11" height="11" stroke="black" stroke-width="3"/>
<rect x="345.5" y="240.5" width="11" height="11" stroke="url(#paint6_linear_1869_7)" stroke-width="3"/>
<rect x="346.615" y="241.615" width="8.76923" height="8.76923" fill="url(#paint7_linear_1869_7)" stroke="#F4F8FA" stroke-width="2"/>
<rect x="345.5" y="321.5" width="11" height="11" stroke="black" stroke-width="3"/>
<rect x="345.5" y="321.5" width="11" height="11" stroke="url(#paint8_linear_1869_7)" stroke-width="3"/>
<rect x="346.615" y="322.615" width="8.76923" height="8.76923" fill="url(#paint9_linear_1869_7)" stroke="#F4F8FA" stroke-width="2"/>
<rect x="277.5" y="420.5" width="11" height="11" stroke="black" stroke-width="3"/>
<rect x="277.5" y="420.5" width="11" height="11" stroke="url(#paint10_linear_1869_7)" stroke-width="3"/>
<rect x="278.615" y="421.615" width="8.76923" height="8.76923" fill="url(#paint11_linear_1869_7)" stroke="#F4F8FA" stroke-width="2"/>
<rect x="85.5" y="420.5" width="11" height="11" stroke="black" stroke-width="3"/>
<rect x="85.5" y="420.5" width="11" height="11" stroke="url(#paint12_linear_1869_7)" stroke-width="3"/>
<rect x="86.6154" y="421.615" width="8.76923" height="8.76923" fill="url(#paint13_linear_1869_7)" stroke="#F4F8FA" stroke-width="2"/>
<rect x="308.5" y="62.5" width="11" height="11" stroke="black" stroke-width="3"/>
<rect x="308.5" y="62.5" width="11" height="11" stroke="url(#paint14_linear_1869_7)" stroke-width="3"/>
<rect x="309.615" y="63.6154" width="8.76923" height="8.76923" fill="url(#paint15_linear_1869_7)" stroke="#F4F8FA" stroke-width="2"/>
<line x1="24" y1="154" x2="24" y2="69" stroke="url(#paint16_linear_1869_7)" stroke-width="2"/>
<line x1="24" y1="426" x2="24" y2="253" stroke="url(#paint17_linear_1869_7)" stroke-width="2"/>
<line x1="351" y1="239" x2="351" y2="67" stroke="url(#paint18_linear_1869_7)" stroke-width="2"/>
<line x1="351" y1="427" x2="351" y2="334" stroke="url(#paint19_linear_1869_7)" stroke-width="2"/>
<line x1="23" y1="68" x2="54" y2="68" stroke="url(#paint20_linear_1869_7)" stroke-width="2"/>
<line x1="321" y1="68" x2="352" y2="68" stroke="url(#paint21_linear_1869_7)" stroke-width="2"/>
<line x1="23" y1="426" x2="84" y2="426" stroke="url(#paint22_linear_1869_7)" stroke-width="2"/>
<line x1="290" y1="426" x2="351" y2="426" stroke="url(#paint23_linear_1869_7)" stroke-width="2"/>
<defs>
<linearGradient id="paint0_linear_1869_7" x1="61" y1="61" x2="61" y2="75" gradientUnits="userSpaceOnUse">
<stop stop-color="#F2A04A"/>
<stop offset="1" stop-color="#F2C24D"/>
</linearGradient>
<linearGradient id="paint1_linear_1869_7" x1="61" y1="62.6154" x2="61" y2="73.3846" gradientUnits="userSpaceOnUse">
<stop stop-color="#F2A04A"/>
<stop offset="1" stop-color="#F2C24D"/>
</linearGradient>
<linearGradient id="paint2_linear_1869_7" x1="24" y1="154" x2="24" y2="168" gradientUnits="userSpaceOnUse">
<stop stop-color="#F2A04A"/>
<stop offset="1" stop-color="#F2C24D"/>
</linearGradient>
<linearGradient id="paint3_linear_1869_7" x1="24" y1="155.615" x2="24" y2="166.385" gradientUnits="userSpaceOnUse">
<stop stop-color="#F2A04A"/>
<stop offset="1" stop-color="#F2C24D"/>
</linearGradient>
<linearGradient id="paint4_linear_1869_7" x1="24" y1="239" x2="24" y2="253" gradientUnits="userSpaceOnUse">
<stop stop-color="#F2A04A"/>
<stop offset="1" stop-color="#F2C24D"/>
</linearGradient>
<linearGradient id="paint5_linear_1869_7" x1="24" y1="240.615" x2="24" y2="251.385" gradientUnits="userSpaceOnUse">
<stop stop-color="#F2A04A"/>
<stop offset="1" stop-color="#F2C24D"/>
</linearGradient>
<linearGradient id="paint6_linear_1869_7" x1="351" y1="239" x2="351" y2="253" gradientUnits="userSpaceOnUse">
<stop stop-color="#F2A04A"/>
<stop offset="1" stop-color="#F2C24D"/>
</linearGradient>
<linearGradient id="paint7_linear_1869_7" x1="351" y1="240.615" x2="351" y2="251.385" gradientUnits="userSpaceOnUse">
<stop stop-color="#F2A04A"/>
<stop offset="1" stop-color="#F2C24D"/>
</linearGradient>
<linearGradient id="paint8_linear_1869_7" x1="351" y1="320" x2="351" y2="334" gradientUnits="userSpaceOnUse">
<stop stop-color="#F2A04A"/>
<stop offset="1" stop-color="#F2C24D"/>
</linearGradient>
<linearGradient id="paint9_linear_1869_7" x1="351" y1="321.615" x2="351" y2="332.385" gradientUnits="userSpaceOnUse">
<stop stop-color="#F2A04A"/>
<stop offset="1" stop-color="#F2C24D"/>
</linearGradient>
<linearGradient id="paint10_linear_1869_7" x1="283" y1="419" x2="283" y2="433" gradientUnits="userSpaceOnUse">
<stop stop-color="#F2A04A"/>
<stop offset="1" stop-color="#F2C24D"/>
</linearGradient>
<linearGradient id="paint11_linear_1869_7" x1="283" y1="420.615" x2="283" y2="431.385" gradientUnits="userSpaceOnUse">
<stop stop-color="#F2A04A"/>
<stop offset="1" stop-color="#F2C24D"/>
</linearGradient>
<linearGradient id="paint12_linear_1869_7" x1="91" y1="419" x2="91" y2="433" gradientUnits="userSpaceOnUse">
<stop stop-color="#F2A04A"/>
<stop offset="1" stop-color="#F2C24D"/>
</linearGradient>
<linearGradient id="paint13_linear_1869_7" x1="91" y1="420.615" x2="91" y2="431.385" gradientUnits="userSpaceOnUse">
<stop stop-color="#F2A04A"/>
<stop offset="1" stop-color="#F2C24D"/>
</linearGradient>
<linearGradient id="paint14_linear_1869_7" x1="314" y1="61" x2="314" y2="75" gradientUnits="userSpaceOnUse">
<stop stop-color="#F2A04A"/>
<stop offset="1" stop-color="#F2C24D"/>
</linearGradient>
<linearGradient id="paint15_linear_1869_7" x1="314" y1="62.6154" x2="314" y2="73.3846" gradientUnits="userSpaceOnUse">
<stop stop-color="#F2A04A"/>
<stop offset="1" stop-color="#F2C24D"/>
</linearGradient>
<linearGradient id="paint16_linear_1869_7" x1="25" y1="111.5" x2="26" y2="111.5" gradientUnits="userSpaceOnUse">
<stop stop-color="#F2A04A"/>
<stop offset="1" stop-color="#F2C24D"/>
</linearGradient>
<linearGradient id="paint17_linear_1869_7" x1="25" y1="339.5" x2="26" y2="339.5" gradientUnits="userSpaceOnUse">
<stop stop-color="#F2A04A"/>
<stop offset="1" stop-color="#F2C24D"/>
</linearGradient>
<linearGradient id="paint18_linear_1869_7" x1="352" y1="153" x2="353" y2="153" gradientUnits="userSpaceOnUse">
<stop stop-color="#F2A04A"/>
<stop offset="1" stop-color="#F2C24D"/>
</linearGradient>
<linearGradient id="paint19_linear_1869_7" x1="352" y1="380.5" x2="353" y2="380.5" gradientUnits="userSpaceOnUse">
<stop stop-color="#F2A04A"/>
<stop offset="1" stop-color="#F2C24D"/>
</linearGradient>
<linearGradient id="paint20_linear_1869_7" x1="38.5" y1="69" x2="38.5" y2="70" gradientUnits="userSpaceOnUse">
<stop stop-color="#F2A04A"/>
<stop offset="1" stop-color="#F2C24D"/>
</linearGradient>
<linearGradient id="paint21_linear_1869_7" x1="336.5" y1="69" x2="336.5" y2="70" gradientUnits="userSpaceOnUse">
<stop stop-color="#F2A04A"/>
<stop offset="1" stop-color="#F2C24D"/>
</linearGradient>
<linearGradient id="paint22_linear_1869_7" x1="53.5" y1="427" x2="53.5" y2="428" gradientUnits="userSpaceOnUse">
<stop stop-color="#F2A04A"/>
<stop offset="1" stop-color="#F2C24D"/>
</linearGradient>
<linearGradient id="paint23_linear_1869_7" x1="320.5" y1="427" x2="320.5" y2="428" gradientUnits="userSpaceOnUse">
<stop stop-color="#F2A04A"/>
<stop offset="1" stop-color="#F2C24D"/>
</linearGradient>
</defs>
</svg>
