<svg width="1212" height="885" viewBox="0 0 1212 885" fill="none" xmlns="http://www.w3.org/2000/svg">
<rect x="166.5" y="264.5" width="879" height="370" stroke="black" stroke-width="3"/>
<rect x="166.5" y="264.5" width="879" height="370" stroke="url(#paint0_linear_1866_6)" stroke-width="3"/>
<rect x="451" y="221" width="348" height="83" fill="#F4F8FA"/>
<rect x="461" y="593" width="331" height="83" fill="#F4F8FA"/>
<rect x="881" y="388" width="331" height="107.931" fill="#F4F8FA"/>
<rect y="389.069" width="331" height="107.931" fill="#F4F8FA"/>
<circle cx="604.5" cy="442.5" r="441" stroke="white" stroke-width="3"/>
<circle cx="604.5" cy="442.5" r="358" stroke="white" stroke-width="3"/>
<path d="M875.5 442.5C875.5 592.167 753.948 713.5 604 713.5C454.052 713.5 332.5 592.167 332.5 442.5C332.5 292.833 454.052 171.5 604 171.5C753.948 171.5 875.5 292.833 875.5 442.5Z" stroke="white" stroke-width="3"/>
<rect x="426.5" y="253.5" width="23" height="23" stroke="black" stroke-width="3"/>
<rect x="426.5" y="253.5" width="23" height="23" stroke="url(#paint1_linear_1866_6)" stroke-width="3"/>
<rect x="429.5" y="256.5" width="17" height="17" fill="url(#paint2_linear_1866_6)" stroke="#F4F8FA" stroke-width="3"/>
<path d="M574.5 442.5C574.5 425.931 587.931 412.5 604.5 412.5C621.069 412.5 634.5 425.931 634.5 442.5C634.5 459.069 621.069 472.5 604.5 472.5C587.931 472.5 574.5 459.069 574.5 442.5Z" stroke="black" stroke-width="3"/>
<path d="M574.5 442.5C574.5 425.931 587.931 412.5 604.5 412.5C621.069 412.5 634.5 425.931 634.5 442.5C634.5 459.069 621.069 472.5 604.5 472.5C587.931 472.5 574.5 459.069 574.5 442.5Z" stroke="url(#paint3_linear_1866_6)" stroke-width="3"/>
<path d="M577.5 442.752C577.5 427.823 589.605 415.5 604.5 415.5C619.412 415.5 631.5 427.588 631.5 442.5C631.5 457.395 619.177 469.5 604.248 469.5C589.612 469.5 577.5 457.388 577.5 442.752Z" fill="url(#paint4_linear_1866_6)" stroke="#F4F8FA" stroke-width="3"/>
<rect x="800.5" y="253.5" width="23" height="23" stroke="black" stroke-width="3"/>
<rect x="800.5" y="253.5" width="23" height="23" stroke="url(#paint5_linear_1866_6)" stroke-width="3"/>
<rect x="803.5" y="256.5" width="17" height="17" fill="url(#paint6_linear_1866_6)" stroke="#F4F8FA" stroke-width="3"/>
<rect x="1033.5" y="368.5" width="23" height="23" stroke="black" stroke-width="3"/>
<rect x="1033.5" y="368.5" width="23" height="23" stroke="url(#paint7_linear_1866_6)" stroke-width="3"/>
<rect x="1036.5" y="371.5" width="17" height="17" fill="url(#paint8_linear_1866_6)" stroke="#F4F8FA" stroke-width="3"/>
<rect x="1033.5" y="497.5" width="23" height="23" stroke="black" stroke-width="3"/>
<rect x="1033.5" y="497.5" width="23" height="23" stroke="url(#paint9_linear_1866_6)" stroke-width="3"/>
<rect x="1036.5" y="500.5" width="17" height="17" fill="url(#paint10_linear_1866_6)" stroke="#F4F8FA" stroke-width="3"/>
<rect x="793.5" y="624.5" width="23" height="23" stroke="black" stroke-width="3"/>
<rect x="793.5" y="624.5" width="23" height="23" stroke="url(#paint11_linear_1866_6)" stroke-width="3"/>
<rect x="796.5" y="627.5" width="17" height="17" fill="url(#paint12_linear_1866_6)" stroke="#F4F8FA" stroke-width="3"/>
<rect x="436.5" y="624.5" width="23" height="23" stroke="black" stroke-width="3"/>
<rect x="436.5" y="624.5" width="23" height="23" stroke="url(#paint13_linear_1866_6)" stroke-width="3"/>
<rect x="439.5" y="627.5" width="17" height="17" fill="url(#paint14_linear_1866_6)" stroke="#F4F8FA" stroke-width="3"/>
<rect x="155.5" y="498.5" width="23" height="23" stroke="black" stroke-width="3"/>
<rect x="155.5" y="498.5" width="23" height="23" stroke="url(#paint15_linear_1866_6)" stroke-width="3"/>
<rect x="158.5" y="501.5" width="17" height="17" fill="url(#paint16_linear_1866_6)" stroke="#F4F8FA" stroke-width="3"/>
<rect x="155.5" y="368.5" width="23" height="23" stroke="black" stroke-width="3"/>
<rect x="155.5" y="368.5" width="23" height="23" stroke="url(#paint17_linear_1866_6)" stroke-width="3"/>
<rect x="158.5" y="371.5" width="17" height="17" fill="url(#paint18_linear_1866_6)" stroke="#F4F8FA" stroke-width="3"/>
<path d="M539.293 258V243.326H526.093V258H529.217V246.076H536.147V258H539.293ZM548.19 258.264C550.918 258.264 552.898 256.218 552.898 252.676C552.898 249.134 550.918 247.11 548.19 247.11C546.892 247.11 545.726 247.682 544.912 248.716V247.374H542.118V262.048H544.912V256.636C545.77 257.736 546.936 258.264 548.19 258.264ZM547.31 255.778C546.408 255.778 545.374 255.228 544.912 254.568V250.806C545.374 250.124 546.408 249.596 547.31 249.596C548.916 249.596 549.994 250.85 549.994 252.676C549.994 254.524 548.916 255.778 547.31 255.778ZM559.873 258.264C563.393 258.264 565.505 255.712 565.505 252.676C565.505 249.662 563.393 247.11 559.873 247.11C556.375 247.11 554.263 249.662 554.263 252.676C554.263 255.712 556.375 258.264 559.873 258.264ZM559.873 255.778C558.135 255.778 557.167 254.348 557.167 252.676C557.167 251.026 558.135 249.596 559.873 249.596C561.611 249.596 562.601 251.026 562.601 252.676C562.601 254.348 561.611 255.778 559.873 255.778ZM566.587 260.706H569.403V258H575.937V260.706H578.731V255.558H577.565V247.374H568.963L568.281 252.522C567.951 255.096 567.445 255.514 566.587 255.668V260.706ZM571.405 249.816H574.771V255.558H569.843C570.503 254.942 570.921 253.996 571.075 252.698L571.405 249.816ZM589.664 258V251.136C589.664 248.078 587.442 247.11 585.022 247.11C583.35 247.11 581.678 247.638 580.38 248.782L581.436 250.652C582.338 249.816 583.394 249.398 584.538 249.398C585.946 249.398 586.87 250.102 586.87 251.18V252.61C586.166 251.774 584.912 251.312 583.504 251.312C581.81 251.312 579.808 252.258 579.808 254.744C579.808 257.12 581.81 258.264 583.504 258.264C584.89 258.264 586.144 257.758 586.87 256.9V258H589.664ZM584.626 256.372C583.526 256.372 582.624 255.8 582.624 254.81C582.624 253.776 583.526 253.204 584.626 253.204C585.528 253.204 586.408 253.512 586.87 254.128V255.448C586.408 256.064 585.528 256.372 584.626 256.372ZM594.547 258L597.385 253.908L597.891 254.458V258H600.707V254.458L601.213 253.908L604.051 258H607.527L603.215 252.192L607.395 247.374H603.963L600.707 251.224V247.374H597.891V251.224L594.635 247.374H591.203L595.383 252.192L591.071 258H594.547ZM618.109 258V251.136C618.109 248.078 615.887 247.11 613.467 247.11C611.795 247.11 610.123 247.638 608.825 248.782L609.881 250.652C610.783 249.816 611.839 249.398 612.983 249.398C614.391 249.398 615.315 250.102 615.315 251.18V252.61C614.611 251.774 613.357 251.312 611.949 251.312C610.255 251.312 608.253 252.258 608.253 254.744C608.253 257.12 610.255 258.264 611.949 258.264C613.335 258.264 614.589 257.758 615.315 256.9V258H618.109ZM613.071 256.372C611.971 256.372 611.069 255.8 611.069 254.81C611.069 253.776 611.971 253.204 613.071 253.204C613.973 253.204 614.853 253.512 615.315 254.128V255.448C614.853 256.064 613.973 256.372 613.071 256.372ZM629.193 258L633.703 251.334V258H636.497V247.374H633.681L629.303 253.798V247.374H626.509V258H629.193ZM650.972 258.264C653.7 258.264 655.68 256.218 655.68 252.676C655.68 249.134 653.7 247.11 650.972 247.11C649.674 247.11 648.508 247.682 647.694 248.716V247.374H644.9V262.048H647.694V256.636C648.552 257.736 649.718 258.264 650.972 258.264ZM650.092 255.778C649.19 255.778 648.156 255.228 647.694 254.568V250.806C648.156 250.124 649.19 249.596 650.092 249.596C651.698 249.596 652.776 250.85 652.776 252.676C652.776 254.524 651.698 255.778 650.092 255.778ZM662.72 258.264C664.37 258.264 666.042 257.758 667.098 256.79L665.866 254.986C665.184 255.646 663.93 256.042 663.028 256.042C661.224 256.042 660.146 254.92 659.97 253.578H667.868V252.962C667.868 249.486 665.712 247.11 662.544 247.11C659.31 247.11 657.044 249.596 657.044 252.676C657.044 256.086 659.486 258.264 662.72 258.264ZM665.162 251.686H659.926C660.058 250.63 660.806 249.332 662.544 249.332C664.392 249.332 665.096 250.674 665.162 251.686ZM682.448 258V247.374H678.752L676.178 253.71L673.56 247.374H669.886V258H672.68V251.092L675.54 258H676.816L679.654 251.092V258H682.448ZM690.154 258.264C693.674 258.264 695.786 255.712 695.786 252.676C695.786 249.662 693.674 247.11 690.154 247.11C686.656 247.11 684.544 249.662 684.544 252.676C684.544 255.712 686.656 258.264 690.154 258.264ZM690.154 255.778C688.416 255.778 687.448 254.348 687.448 252.676C687.448 251.026 688.416 249.596 690.154 249.596C691.892 249.596 692.882 251.026 692.882 252.676C692.882 254.348 691.892 255.778 690.154 255.778ZM700.653 258V253.754H705.053V258H707.847V247.374H705.053V251.312H700.653V247.374H697.859V258H700.653ZM715.394 258V249.816H718.364V247.374H709.608V249.816H712.578V258H715.394ZM480.617 285.264C484.137 285.264 486.249 282.712 486.249 279.676C486.249 276.662 484.137 274.11 480.617 274.11C477.119 274.11 475.007 276.662 475.007 279.676C475.007 282.712 477.119 285.264 480.617 285.264ZM480.617 282.778C478.879 282.778 477.911 281.348 477.911 279.676C477.911 278.026 478.879 276.596 480.617 276.596C482.355 276.596 483.345 278.026 483.345 279.676C483.345 281.348 482.355 282.778 480.617 282.778ZM493.25 282.778C491.512 282.778 490.544 281.348 490.544 279.632C490.544 278.026 491.512 276.596 493.25 276.596C494.988 276.596 495.978 278.026 495.978 279.632C495.978 281.348 494.988 282.778 493.25 282.778ZM493.25 285.264C496.792 285.264 498.86 282.646 498.86 279.654C498.86 276.706 496.88 274.11 493.844 274.11C492.37 274.11 491.072 274.726 490.214 275.848C490.5 274.616 491.534 273.516 494.042 273.186C495.78 272.966 498.464 272.394 498.464 270.326H495.56C495.56 270.7 494.944 270.964 493.162 271.228C489.51 271.712 487.64 274.022 487.64 279.192C487.64 282.646 489.708 285.264 493.25 285.264ZM505.947 285.264C509.467 285.264 511.579 282.712 511.579 279.676C511.579 276.662 509.467 274.11 505.947 274.11C502.449 274.11 500.337 276.662 500.337 279.676C500.337 282.712 502.449 285.264 505.947 285.264ZM505.947 282.778C504.209 282.778 503.241 281.348 503.241 279.676C503.241 278.026 504.209 276.596 505.947 276.596C507.685 276.596 508.675 278.026 508.675 279.676C508.675 281.348 507.685 282.778 505.947 282.778ZM519.724 285.264C522.452 285.264 524.432 283.218 524.432 279.676C524.432 276.134 522.452 274.11 519.724 274.11C518.426 274.11 517.26 274.682 516.446 275.716V274.374H513.652V289.048H516.446V283.636C517.304 284.736 518.47 285.264 519.724 285.264ZM518.844 282.778C517.942 282.778 516.908 282.228 516.446 281.568V277.806C516.908 277.124 517.942 276.596 518.844 276.596C520.45 276.596 521.528 277.85 521.528 279.676C521.528 281.524 520.45 282.778 518.844 282.778ZM526.104 289.158C526.456 289.246 527.16 289.312 527.49 289.312C529.316 289.268 530.724 288.74 531.516 286.738L536.51 274.374H533.496L530.724 281.766L527.952 274.374H524.96L529.272 285.154L528.876 286.056C528.612 286.628 528.128 286.826 527.402 286.826C527.138 286.826 526.764 286.76 526.522 286.65L526.104 289.158ZM536.767 287.706H539.583V285H546.117V287.706H548.911V282.558H547.745V274.374H539.143L538.461 279.522C538.131 282.096 537.625 282.514 536.767 282.668V287.706ZM541.585 276.816H544.951V282.558H540.023C540.683 281.942 541.101 280.996 541.255 279.698L541.585 276.816ZM555.597 285.264C559.117 285.264 561.229 282.712 561.229 279.676C561.229 276.662 559.117 274.11 555.597 274.11C552.099 274.11 549.987 276.662 549.987 279.676C549.987 282.712 552.099 285.264 555.597 285.264ZM555.597 282.778C553.859 282.778 552.891 281.348 552.891 279.676C552.891 278.026 553.859 276.596 555.597 276.596C557.335 276.596 558.325 278.026 558.325 279.676C558.325 281.348 557.335 282.778 555.597 282.778ZM570.232 285C572.366 285 573.51 283.724 573.51 282.118C573.51 280.842 572.652 279.786 571.486 279.522C572.476 279.236 573.29 278.378 573.29 277.102C573.29 275.672 572.19 274.374 570.034 274.374H563.302V285H570.232ZM569.55 282.712H566.096V280.732H569.55C570.254 280.732 570.65 281.194 570.65 281.722C570.65 282.338 570.232 282.712 569.55 282.712ZM569.462 278.444H566.096V276.662H569.462C570.078 276.662 570.452 277.036 570.452 277.564C570.452 278.048 570.078 278.444 569.462 278.444ZM585.367 285V278.136C585.367 275.078 583.145 274.11 580.725 274.11C579.053 274.11 577.381 274.638 576.083 275.782L577.139 277.652C578.041 276.816 579.097 276.398 580.241 276.398C581.649 276.398 582.573 277.102 582.573 278.18V279.61C581.869 278.774 580.615 278.312 579.207 278.312C577.513 278.312 575.511 279.258 575.511 281.744C575.511 284.12 577.513 285.264 579.207 285.264C580.593 285.264 581.847 284.758 582.573 283.9V285H585.367ZM580.329 283.372C579.229 283.372 578.327 282.8 578.327 281.81C578.327 280.776 579.229 280.204 580.329 280.204C581.231 280.204 582.111 280.512 582.573 281.128V282.448C582.111 283.064 581.231 283.372 580.329 283.372ZM590.932 285V280.754H595.332V285H598.126V274.374H595.332V278.312H590.932V274.374H588.138V285H590.932ZM603.584 285L608.094 278.334V285H610.888V274.374H608.072L603.694 280.798V274.374H600.9V285H603.584ZM616.477 285L618.567 281.348H620.745V285H623.539V274.374H617.093C614.739 274.374 613.419 275.98 613.419 277.85C613.419 279.742 614.563 280.842 615.773 281.15L613.309 285H616.477ZM617.533 279.016C616.741 279.016 616.257 278.532 616.257 277.85C616.257 277.19 616.763 276.728 617.533 276.728H620.745V279.016H617.533ZM630.912 287.706H633.728V285H640.262V287.706H643.056V282.558H641.89V274.374H633.288L632.606 279.522C632.276 282.096 631.77 282.514 630.912 282.668V287.706ZM635.73 276.816H639.096V282.558H634.168C634.828 281.942 635.246 280.996 635.4 279.698L635.73 276.816ZM643.824 285.264C646.53 285.264 647.85 283.526 648.29 279.852L648.642 276.816H652.008V285H654.802V274.374H646.2L645.518 279.522C645.188 282.096 644.682 282.976 643.824 282.976V285.264ZM660.391 285L662.481 281.348H664.659V285H667.453V274.374H661.007C658.653 274.374 657.333 275.98 657.333 277.85C657.333 279.742 658.477 280.842 659.687 281.15L657.223 285H660.391ZM661.447 279.016C660.655 279.016 660.171 278.532 660.171 277.85C660.171 277.19 660.677 276.728 661.447 276.728H664.659V279.016H661.447ZM688.378 285V274.374H684.682L682.108 280.71L679.49 274.374H675.816V285H678.61V278.092L681.47 285H682.746L685.584 278.092V285H688.378ZM700.33 285V278.136C700.33 275.078 698.108 274.11 695.688 274.11C694.016 274.11 692.344 274.638 691.046 275.782L692.102 277.652C693.004 276.816 694.06 276.398 695.204 276.398C696.612 276.398 697.536 277.102 697.536 278.18V279.61C696.832 278.774 695.578 278.312 694.17 278.312C692.476 278.312 690.474 279.258 690.474 281.744C690.474 284.12 692.476 285.264 694.17 285.264C695.556 285.264 696.81 284.758 697.536 283.9V285H700.33ZM695.292 283.372C694.192 283.372 693.29 282.8 693.29 281.81C693.29 280.776 694.192 280.204 695.292 280.204C696.194 280.204 697.074 280.512 697.536 281.128V282.448C697.074 283.064 696.194 283.372 695.292 283.372ZM705.785 285L710.295 278.334V285H713.089V274.374H710.273L705.895 280.798V274.374H703.101V285H705.785ZM711.945 271.382L710.713 270.348C710.097 271.206 709.195 271.712 708.095 271.712C706.951 271.712 706.049 271.184 705.455 270.348L704.223 271.382C705.125 272.57 706.533 273.318 708.095 273.318C709.679 273.318 711.065 272.57 711.945 271.382ZM718.657 285V280.754H723.057V285H725.851V274.374H723.057V278.312H718.657V274.374H715.863V285H718.657ZM731.308 285L735.818 278.334V285H738.612V274.374H735.796L731.418 280.798V274.374H728.624V285H731.308ZM744.18 285V280.754H748.58V285H751.374V274.374H748.58V278.312H744.18V274.374H741.386V285H744.18ZM762.354 274.374H754.148V285H756.942V276.816H762.354V274.374ZM773.312 285V278.136C773.312 275.078 771.09 274.11 768.67 274.11C766.998 274.11 765.326 274.638 764.028 275.782L765.084 277.652C765.986 276.816 767.042 276.398 768.186 276.398C769.594 276.398 770.518 277.102 770.518 278.18V279.61C769.814 278.774 768.56 278.312 767.152 278.312C765.458 278.312 763.456 279.258 763.456 281.744C763.456 284.12 765.458 285.264 767.152 285.264C768.538 285.264 769.792 284.758 770.518 283.9V285H773.312ZM768.274 283.372C767.174 283.372 766.272 282.8 766.272 281.81C766.272 280.776 767.174 280.204 768.274 280.204C769.176 280.204 770.056 280.512 770.518 281.128V282.448C770.056 283.064 769.176 283.372 768.274 283.372Z" fill="#333333"/>
<path d="M518.057 615.264C521.291 615.264 523.139 613.482 524.195 611.656L521.511 610.358C520.895 611.568 519.575 612.492 518.057 612.492C515.395 612.492 513.459 610.446 513.459 607.674C513.459 604.902 515.395 602.856 518.057 602.856C519.575 602.856 520.895 603.802 521.511 604.99L524.195 603.67C523.161 601.844 521.291 600.084 518.057 600.084C513.657 600.084 510.247 603.164 510.247 607.674C510.247 612.184 513.657 615.264 518.057 615.264ZM530.917 615.264C534.437 615.264 536.549 612.712 536.549 609.676C536.549 606.662 534.437 604.11 530.917 604.11C527.419 604.11 525.307 606.662 525.307 609.676C525.307 612.712 527.419 615.264 530.917 615.264ZM530.917 612.778C529.179 612.778 528.211 611.348 528.211 609.676C528.211 608.026 529.179 606.596 530.917 606.596C532.655 606.596 533.645 608.026 533.645 609.676C533.645 611.348 532.655 612.778 530.917 612.778ZM543.549 612.778C541.811 612.778 540.843 611.348 540.843 609.632C540.843 608.026 541.811 606.596 543.549 606.596C545.287 606.596 546.277 608.026 546.277 609.632C546.277 611.348 545.287 612.778 543.549 612.778ZM543.549 615.264C547.091 615.264 549.159 612.646 549.159 609.654C549.159 606.706 547.179 604.11 544.143 604.11C542.669 604.11 541.371 604.726 540.513 605.848C540.799 604.616 541.833 603.516 544.341 603.186C546.079 602.966 548.763 602.394 548.763 600.326H545.859C545.859 600.7 545.243 600.964 543.461 601.228C539.809 601.712 537.939 604.022 537.939 609.192C537.939 612.646 540.007 615.264 543.549 615.264ZM556.269 615.264C558.447 615.264 559.767 614.318 560.471 613.328L558.645 611.634C558.139 612.338 557.369 612.778 556.401 612.778C554.707 612.778 553.519 611.524 553.519 609.676C553.519 607.828 554.707 606.596 556.401 606.596C557.369 606.596 558.139 606.992 558.645 607.74L560.471 606.024C559.767 605.056 558.447 604.11 556.269 604.11C552.991 604.11 550.637 606.42 550.637 609.676C550.637 612.954 552.991 615.264 556.269 615.264ZM567.071 615V606.816H570.041V604.374H561.285V606.816H564.255V615H567.071ZM578.723 615C580.857 615 582.001 613.724 582.001 612.118C582.001 610.842 581.143 609.786 579.977 609.522C580.967 609.236 581.781 608.378 581.781 607.102C581.781 605.672 580.681 604.374 578.525 604.374H571.793V615H578.723ZM578.041 612.712H574.587V610.732H578.041C578.745 610.732 579.141 611.194 579.141 611.722C579.141 612.338 578.723 612.712 578.041 612.712ZM577.953 608.444H574.587V606.662H577.953C578.569 606.662 578.943 607.036 578.943 607.564C578.943 608.048 578.569 608.444 577.953 608.444ZM589.678 615.264C591.328 615.264 593 614.758 594.056 613.79L592.824 611.986C592.142 612.646 590.888 613.042 589.986 613.042C588.182 613.042 587.104 611.92 586.928 610.578H594.826V609.962C594.826 606.486 592.67 604.11 589.502 604.11C586.268 604.11 584.002 606.596 584.002 609.676C584.002 613.086 586.444 615.264 589.678 615.264ZM592.12 608.686H586.884C587.016 607.63 587.764 606.332 589.502 606.332C591.35 606.332 592.054 607.674 592.12 608.686ZM599.638 615V610.754H604.038V615H606.832V604.374H604.038V608.312H599.638V604.374H596.844V615H599.638ZM612.4 615V610.754H616.8V615H619.594V604.374H616.8V608.312H612.4V604.374H609.606V615H612.4ZM622.367 604.374V615H628.791C631.167 615 632.487 613.394 632.487 611.502C632.487 609.632 631.255 608.026 628.791 608.026H625.161V604.374H622.367ZM628.373 610.358C629.165 610.358 629.627 610.842 629.627 611.502C629.627 612.162 629.165 612.646 628.373 612.646H625.161V610.358H628.373ZM636.689 615V604.374H633.873V615H636.689ZM642.132 615L646.642 608.334V615H649.436V604.374H646.62L642.242 610.798V604.374H639.448V615H642.132ZM648.292 601.382L647.06 600.348C646.444 601.206 645.542 601.712 644.442 601.712C643.298 601.712 642.396 601.184 641.802 600.348L640.57 601.382C641.472 602.57 642.88 603.318 644.442 603.318C646.026 603.318 647.412 602.57 648.292 601.382ZM667.826 615V604.374H657.838V615H660.632V606.816H665.032V615H667.826ZM670.226 619.158C670.578 619.246 671.282 619.312 671.612 619.312C673.438 619.268 674.846 618.74 675.638 616.738L680.632 604.374H677.618L674.846 611.766L672.074 604.374H669.082L673.394 615.154L672.998 616.056C672.734 616.628 672.25 616.826 671.524 616.826C671.26 616.826 670.886 616.76 670.644 616.65L670.226 619.158ZM680.889 615.264C683.595 615.264 684.915 613.526 685.355 609.852L685.707 606.816H689.073V615H691.867V604.374H683.265L682.583 609.522C682.253 612.096 681.747 612.976 680.889 612.976V615.264ZM719.366 607.3C721.742 607.3 723.172 605.628 723.172 603.67C723.172 601.712 721.742 600.04 719.366 600.04C717.034 600.04 715.582 601.712 715.582 603.67C715.582 605.628 717.034 607.3 719.366 607.3ZM719.366 605.672C718.288 605.672 717.672 604.88 717.672 603.67C717.672 602.46 718.288 601.712 719.366 601.712C720.444 601.712 721.082 602.46 721.082 603.67C721.082 604.88 720.444 605.672 719.366 605.672ZM713.47 615V600.326H710.346V609.544L703.548 600.326H700.336V615H703.46V605.43L710.456 615H713.47ZM731.417 615V600.326H728.689L724.069 604.968L725.851 606.838L728.293 604.352V615H731.417ZM586.318 642C588.452 642 589.596 640.724 589.596 639.118C589.596 637.842 588.738 636.786 587.572 636.522C588.562 636.236 589.376 635.378 589.376 634.102C589.376 632.672 588.276 631.374 586.12 631.374H579.388V642H586.318ZM585.636 639.712H582.182V637.732H585.636C586.34 637.732 586.736 638.194 586.736 638.722C586.736 639.338 586.318 639.712 585.636 639.712ZM585.548 635.444H582.182V633.662H585.548C586.164 633.662 586.538 634.036 586.538 634.564C586.538 635.048 586.164 635.444 585.548 635.444ZM601.097 642V636.786H604.837C608.005 636.786 609.765 634.608 609.765 632.056C609.765 629.482 608.027 627.326 604.837 627.326H597.973V642H601.097ZM604.419 634.036H601.097V630.076H604.419C605.651 630.076 606.575 630.824 606.575 632.056C606.575 633.266 605.651 634.036 604.419 634.036ZM616.199 642.264C619.719 642.264 621.831 639.712 621.831 636.676C621.831 633.662 619.719 631.11 616.199 631.11C612.701 631.11 610.589 633.662 610.589 636.676C610.589 639.712 612.701 642.264 616.199 642.264ZM616.199 639.778C614.461 639.778 613.493 638.348 613.493 636.676C613.493 635.026 614.461 633.596 616.199 633.596C617.937 633.596 618.927 635.026 618.927 636.676C618.927 638.348 617.937 639.778 616.199 639.778ZM628.854 642.264C631.032 642.264 632.352 641.318 633.056 640.328L631.23 638.634C630.724 639.338 629.954 639.778 628.986 639.778C627.292 639.778 626.104 638.524 626.104 636.676C626.104 634.828 627.292 633.596 628.986 633.596C629.954 633.596 630.724 633.992 631.23 634.74L633.056 633.024C632.352 632.056 631.032 631.11 628.854 631.11C625.576 631.11 623.222 633.42 623.222 636.676C623.222 639.954 625.576 642.264 628.854 642.264ZM639.832 642.264C642.01 642.264 643.33 641.318 644.034 640.328L642.208 638.634C641.702 639.338 640.932 639.778 639.964 639.778C638.27 639.778 637.082 638.524 637.082 636.676C637.082 634.828 638.27 633.596 639.964 633.596C640.932 633.596 641.702 633.992 642.208 634.74L644.034 633.024C643.33 632.056 642.01 631.11 639.832 631.11C636.554 631.11 634.2 633.42 634.2 636.676C634.2 639.954 636.554 642.264 639.832 642.264ZM648.545 642L653.055 635.334V642H655.849V631.374H653.033L648.655 637.798V631.374H645.861V642H648.545ZM661.306 642L665.816 635.334V642H668.61V631.374H665.794L661.416 637.798V631.374H658.622V642H661.306Z" fill="#333333"/>
<path d="M553.643 669.264C556.591 669.264 558.241 667.79 558.241 665.854C558.241 661.564 551.949 662.884 551.949 661.3C551.949 660.706 552.609 660.244 553.621 660.244C554.919 660.244 556.129 660.794 556.767 661.476L557.889 659.562C556.833 658.726 555.403 658.11 553.599 658.11C550.805 658.11 549.243 659.672 549.243 661.454C549.243 665.634 555.557 664.204 555.557 665.964C555.557 666.624 554.985 667.108 553.775 667.108C552.455 667.108 550.871 666.382 550.101 665.656L548.891 667.614C550.013 668.648 551.795 669.264 553.643 669.264ZM561.685 657.23C562.609 657.23 563.357 656.482 563.357 655.558C563.357 654.634 562.609 653.908 561.685 653.908C560.783 653.908 560.013 654.634 560.013 655.558C560.013 656.482 560.783 657.23 561.685 657.23ZM563.093 669V658.374H560.299V669H563.093ZM581.858 669V661.322C581.858 659.144 580.692 658.11 578.734 658.11C577.106 658.11 575.698 659.078 575.082 660.046C574.686 658.836 573.696 658.11 572.134 658.11C570.506 658.11 569.098 659.122 568.658 659.76V658.374H565.864V669H568.658V661.85C569.076 661.256 569.89 660.596 570.858 660.596C572.002 660.596 572.442 661.3 572.442 662.29V669H575.258V661.828C575.654 661.256 576.468 660.596 577.458 660.596C578.602 660.596 579.042 661.3 579.042 662.29V669H581.858ZM588.954 673.312C591.572 673.312 594.696 672.322 594.696 668.274V658.374H591.88V659.738C591.022 658.66 589.878 658.11 588.602 658.11C585.918 658.11 583.916 660.046 583.916 663.522C583.916 667.064 585.94 668.934 588.602 668.934C589.9 668.934 591.044 668.318 591.88 667.262V668.34C591.88 670.43 590.296 671.024 588.954 671.024C587.612 671.024 586.49 670.65 585.632 669.704L584.378 671.728C585.72 672.894 587.128 673.312 588.954 673.312ZM589.482 666.448C587.898 666.448 586.798 665.348 586.798 663.522C586.798 661.696 587.898 660.596 589.482 660.596C590.406 660.596 591.418 661.102 591.88 661.806V665.238C591.418 665.92 590.406 666.448 589.482 666.448ZM606.641 669V662.136C606.641 659.078 604.419 658.11 601.999 658.11C600.327 658.11 598.655 658.638 597.357 659.782L598.413 661.652C599.315 660.816 600.371 660.398 601.515 660.398C602.923 660.398 603.847 661.102 603.847 662.18V663.61C603.143 662.774 601.889 662.312 600.481 662.312C598.787 662.312 596.785 663.258 596.785 665.744C596.785 668.12 598.787 669.264 600.481 669.264C601.867 669.264 603.121 668.758 603.847 667.9V669H606.641ZM601.603 667.372C600.503 667.372 599.601 666.8 599.601 665.81C599.601 664.776 600.503 664.204 601.603 664.204C602.505 664.204 603.385 664.512 603.847 665.128V666.448C603.385 667.064 602.505 667.372 601.603 667.372ZM615.484 669.264C618.212 669.264 620.192 667.218 620.192 663.676C620.192 660.134 618.212 658.11 615.484 658.11C614.186 658.11 613.02 658.682 612.206 659.716V658.374H609.412V673.048H612.206V667.636C613.064 668.736 614.23 669.264 615.484 669.264ZM614.604 666.778C613.702 666.778 612.668 666.228 612.206 665.568V661.806C612.668 661.124 613.702 660.596 614.604 660.596C616.21 660.596 617.288 661.85 617.288 663.676C617.288 665.524 616.21 666.778 614.604 666.778ZM627.167 669.264C630.687 669.264 632.799 666.712 632.799 663.676C632.799 660.662 630.687 658.11 627.167 658.11C623.669 658.11 621.557 660.662 621.557 663.676C621.557 666.712 623.669 669.264 627.167 669.264ZM627.167 666.778C625.429 666.778 624.461 665.348 624.461 663.676C624.461 662.026 625.429 660.596 627.167 660.596C628.905 660.596 629.895 662.026 629.895 663.676C629.895 665.348 628.905 666.778 627.167 666.778ZM639.799 669.264C643.319 669.264 645.431 666.712 645.431 663.676C645.431 660.662 643.319 658.11 639.799 658.11C636.301 658.11 634.189 660.662 634.189 663.676C634.189 666.712 636.301 669.264 639.799 669.264ZM639.799 666.778C638.061 666.778 637.093 665.348 637.093 663.676C637.093 662.026 638.061 660.596 639.799 660.596C641.537 660.596 642.527 662.026 642.527 663.676C642.527 665.348 641.537 666.778 639.799 666.778ZM650.298 669V654.326H647.504V669H650.298ZM654.499 669.242C655.467 669.242 656.281 668.428 656.281 667.46C656.281 666.492 655.467 665.678 654.499 665.678C653.531 665.678 652.717 666.492 652.717 667.46C652.717 668.428 653.531 669.242 654.499 669.242ZM663.562 669.264C665.74 669.264 667.06 668.318 667.764 667.328L665.938 665.634C665.432 666.338 664.662 666.778 663.694 666.778C662 666.778 660.812 665.524 660.812 663.676C660.812 661.828 662 660.596 663.694 660.596C664.662 660.596 665.432 660.992 665.938 661.74L667.764 660.024C667.06 659.056 665.74 658.11 663.562 658.11C660.284 658.11 657.93 660.42 657.93 663.676C657.93 666.954 660.284 669.264 663.562 669.264ZM674.518 669.264C678.038 669.264 680.15 666.712 680.15 663.676C680.15 660.662 678.038 658.11 674.518 658.11C671.02 658.11 668.908 660.662 668.908 663.676C668.908 666.712 671.02 669.264 674.518 669.264ZM674.518 666.778C672.78 666.778 671.812 665.348 671.812 663.676C671.812 662.026 672.78 660.596 674.518 660.596C676.256 660.596 677.246 662.026 677.246 663.676C677.246 665.348 676.256 666.778 674.518 666.778ZM698.217 669V661.322C698.217 659.144 697.051 658.11 695.093 658.11C693.465 658.11 692.057 659.078 691.441 660.046C691.045 658.836 690.055 658.11 688.493 658.11C686.865 658.11 685.457 659.122 685.017 659.76V658.374H682.223V669H685.017V661.85C685.435 661.256 686.249 660.596 687.217 660.596C688.361 660.596 688.801 661.3 688.801 662.29V669H691.617V661.828C692.013 661.256 692.827 660.596 693.817 660.596C694.961 660.596 695.401 661.3 695.401 662.29V669H698.217Z" fill="#1E5BAE"/>
<path d="M88.7736 422L95.7696 412.166V422H98.8936V407.326H95.6816L88.8836 416.808V407.326H85.7596V422H88.7736ZM104.515 422V417.754H108.915V422H111.709V411.374H108.915V415.312H104.515V411.374H101.721V422H104.515ZM121.413 422C123.547 422 124.691 420.724 124.691 419.118C124.691 417.842 123.833 416.786 122.667 416.522C123.657 416.236 124.471 415.378 124.471 414.102C124.471 412.672 123.371 411.374 121.215 411.374H114.483V422H121.413ZM120.731 419.712H117.277V417.732H120.731C121.435 417.732 121.831 418.194 121.831 418.722C121.831 419.338 121.413 419.712 120.731 419.712ZM120.643 415.444H117.277V413.662H120.643C121.259 413.662 121.633 414.036 121.633 414.564C121.633 415.048 121.259 415.444 120.643 415.444ZM132.367 422.264C134.017 422.264 135.689 421.758 136.745 420.79L135.513 418.986C134.831 419.646 133.577 420.042 132.675 420.042C130.871 420.042 129.793 418.92 129.617 417.578H137.515V416.962C137.515 413.486 135.359 411.11 132.191 411.11C128.957 411.11 126.691 413.596 126.691 416.676C126.691 420.086 129.133 422.264 132.367 422.264ZM134.809 415.686H129.573C129.705 414.63 130.453 413.332 132.191 413.332C134.039 413.332 134.743 414.674 134.809 415.686ZM144.483 422.264C146.661 422.264 147.981 421.318 148.685 420.328L146.859 418.634C146.353 419.338 145.583 419.778 144.615 419.778C142.921 419.778 141.733 418.524 141.733 416.676C141.733 414.828 142.921 413.596 144.615 413.596C145.583 413.596 146.353 413.992 146.859 414.74L148.685 413.024C147.981 412.056 146.661 411.11 144.483 411.11C141.205 411.11 138.851 413.42 138.851 416.676C138.851 419.954 141.205 422.264 144.483 422.264ZM155.286 422V413.816H158.256V411.374H149.5V413.816H152.47V422H155.286ZM162.692 422L167.202 415.334V422H169.996V411.374H167.18L162.802 417.798V411.374H160.008V422H162.692ZM181.13 424.706H183.924V419.558H182.758V411.374H179.964V419.558H175.564V411.374H172.77V422H181.13V424.706ZM188.366 422L192.876 415.334V422H195.67V411.374H192.854L188.476 417.798V411.374H185.682V422H188.366ZM203.372 422.264C206.892 422.264 209.004 419.712 209.004 416.676C209.004 413.662 206.892 411.11 203.372 411.11C199.874 411.11 197.762 413.662 197.762 416.676C197.762 419.712 199.874 422.264 203.372 422.264ZM203.372 419.778C201.634 419.778 200.666 418.348 200.666 416.676C200.666 415.026 201.634 413.596 203.372 413.596C205.11 413.596 206.1 415.026 206.1 416.676C206.1 418.348 205.11 419.778 203.372 419.778ZM213.87 422V417.754H218.27V422H221.064V411.374H218.27V415.312H213.87V411.374H211.076V422H213.87ZM223.838 411.374V422H230.262C232.638 422 233.958 420.394 233.958 418.502C233.958 416.632 232.726 415.026 230.262 415.026H226.632V411.374H223.838ZM229.844 417.358C230.636 417.358 231.098 417.842 231.098 418.502C231.098 419.162 230.636 419.646 229.844 419.646H226.632V417.358H229.844ZM238.16 422V411.374H235.344V422H238.16ZM245.912 422.264C247.562 422.264 249.234 421.758 250.29 420.79L249.058 418.986C248.376 419.646 247.122 420.042 246.22 420.042C244.416 420.042 243.338 418.92 243.162 417.578H251.06V416.962C251.06 413.486 248.904 411.11 245.736 411.11C242.502 411.11 240.236 413.596 240.236 416.676C240.236 420.086 242.678 422.264 245.912 422.264ZM248.354 415.686H243.118C243.25 414.63 243.998 413.332 245.736 413.332C247.584 413.332 248.288 414.674 248.354 415.686ZM78.4834 449V438.374H68.4954V449H71.2894V440.816H75.6894V449H78.4834ZM87.3291 449.264C90.0571 449.264 92.0371 447.218 92.0371 443.676C92.0371 440.134 90.0571 438.11 87.3291 438.11C86.0311 438.11 84.8651 438.682 84.0511 439.716V438.374H81.2571V453.048H84.0511V447.636C84.9091 448.736 86.0751 449.264 87.3291 449.264ZM86.4491 446.778C85.5471 446.778 84.5131 446.228 84.0511 445.568V441.806C84.5131 441.124 85.5471 440.596 86.4491 440.596C88.0551 440.596 89.1331 441.85 89.1331 443.676C89.1331 445.524 88.0551 446.778 86.4491 446.778ZM99.0113 449.264C102.531 449.264 104.643 446.712 104.643 443.676C104.643 440.662 102.531 438.11 99.0113 438.11C95.5133 438.11 93.4013 440.662 93.4013 443.676C93.4013 446.712 95.5133 449.264 99.0113 449.264ZM99.0113 446.778C97.2733 446.778 96.3053 445.348 96.3053 443.676C96.3053 442.026 97.2733 440.596 99.0113 440.596C100.749 440.596 101.739 442.026 101.739 443.676C101.739 445.348 100.749 446.778 99.0113 446.778ZM111.71 449.264C113.36 449.264 115.032 448.758 116.088 447.79L114.856 445.986C114.174 446.646 112.92 447.042 112.018 447.042C110.214 447.042 109.136 445.92 108.96 444.578H116.858V443.962C116.858 440.486 114.702 438.11 111.534 438.11C108.3 438.11 106.034 440.596 106.034 443.676C106.034 447.086 108.476 449.264 111.71 449.264ZM114.152 442.686H108.916C109.048 441.63 109.796 440.332 111.534 440.332C113.382 440.332 114.086 441.674 114.152 442.686ZM129.26 449L124.926 443.192L129.128 438.374H125.696L121.67 443.104V438.374H118.876V449H121.67V446.272L122.946 444.908L125.762 449H129.26ZM135.424 449V440.816H138.394V438.374H129.638V440.816H132.608V449H135.424ZM140.146 438.374V449H146.57C148.946 449 150.266 447.394 150.266 445.502C150.266 443.632 149.034 442.026 146.57 442.026H142.94V438.374H140.146ZM146.152 444.358C146.944 444.358 147.406 444.842 147.406 445.502C147.406 446.162 146.944 446.646 146.152 446.646H142.94V444.358H146.152ZM154.468 449V438.374H151.652V449H154.468ZM169.785 449C171.919 449 173.063 447.724 173.063 446.118C173.063 444.842 172.205 443.786 171.039 443.522C172.029 443.236 172.843 442.378 172.843 441.102C172.843 439.672 171.743 438.374 169.587 438.374H162.855V449H169.785ZM169.103 446.712H165.649V444.732H169.103C169.807 444.732 170.203 445.194 170.203 445.722C170.203 446.338 169.785 446.712 169.103 446.712ZM169.015 442.444H165.649V440.662H169.015C169.631 440.662 170.005 441.036 170.005 441.564C170.005 442.048 169.631 442.444 169.015 442.444ZM186.302 449.264C189.822 449.264 191.934 446.712 191.934 443.676C191.934 440.662 189.822 438.11 186.302 438.11C182.804 438.11 180.692 440.662 180.692 443.676C180.692 446.712 182.804 449.264 186.302 449.264ZM186.302 446.778C184.564 446.778 183.596 445.348 183.596 443.676C183.596 442.026 184.564 440.596 186.302 440.596C188.04 440.596 189.03 442.026 189.03 443.676C189.03 445.348 188.04 446.778 186.302 446.778ZM198.935 446.778C197.197 446.778 196.229 445.348 196.229 443.632C196.229 442.026 197.197 440.596 198.935 440.596C200.673 440.596 201.663 442.026 201.663 443.632C201.663 445.348 200.673 446.778 198.935 446.778ZM198.935 449.264C202.477 449.264 204.545 446.646 204.545 443.654C204.545 440.706 202.565 438.11 199.529 438.11C198.055 438.11 196.757 438.726 195.899 439.848C196.185 438.616 197.219 437.516 199.727 437.186C201.465 436.966 204.149 436.394 204.149 434.326H201.245C201.245 434.7 200.629 434.964 198.847 435.228C195.195 435.712 193.325 438.022 193.325 443.192C193.325 446.646 195.393 449.264 198.935 449.264ZM205.714 449.264C208.42 449.264 209.74 447.526 210.18 443.852L210.532 440.816H213.898V449H216.692V438.374H208.09L207.408 443.522C207.078 446.096 206.572 446.976 205.714 446.976V449.264ZM228.64 449V442.136C228.64 439.078 226.418 438.11 223.998 438.11C222.326 438.11 220.654 438.638 219.356 439.782L220.412 441.652C221.314 440.816 222.37 440.398 223.514 440.398C224.922 440.398 225.846 441.102 225.846 442.18V443.61C225.142 442.774 223.888 442.312 222.48 442.312C220.786 442.312 218.784 443.258 218.784 445.744C218.784 448.12 220.786 449.264 222.48 449.264C223.866 449.264 225.12 448.758 225.846 447.9V449H228.64ZM223.602 447.372C222.502 447.372 221.6 446.8 221.6 445.81C221.6 444.776 222.502 444.204 223.602 444.204C224.504 444.204 225.384 444.512 225.846 445.128V446.448C225.384 447.064 224.504 447.372 223.602 447.372ZM236.361 449.264C238.539 449.264 239.859 448.318 240.563 447.328L238.737 445.634C238.231 446.338 237.461 446.778 236.493 446.778C234.799 446.778 233.611 445.524 233.611 443.676C233.611 441.828 234.799 440.596 236.493 440.596C237.461 440.596 238.231 440.992 238.737 441.74L240.563 440.024C239.859 439.056 238.539 438.11 236.361 438.11C233.083 438.11 230.729 440.42 230.729 443.676C230.729 446.954 233.083 449.264 236.361 449.264ZM247.164 449V440.816H250.134V438.374H241.378V440.816H244.348V449H247.164ZM254.57 449L259.08 442.334V449H261.874V438.374H259.058L254.68 444.798V438.374H251.886V449H254.57ZM122.717 476C125.511 476 126.985 474.24 126.985 472.04C126.985 470.192 125.731 468.674 124.169 468.432C125.555 468.146 126.699 466.914 126.699 465.066C126.699 463.108 125.269 461.326 122.475 461.326H114.753V476H122.717ZM121.793 467.2H117.877V464.01H121.793C122.849 464.01 123.509 464.692 123.509 465.616C123.509 466.54 122.849 467.2 121.793 467.2ZM121.903 473.294H117.877V469.884H121.903C123.135 469.884 123.795 470.676 123.795 471.6C123.795 472.656 123.091 473.294 121.903 473.294ZM132.069 476V461.326H129.275V476H132.069ZM139.767 476.264C143.287 476.264 145.399 473.712 145.399 470.676C145.399 467.662 143.287 465.11 139.767 465.11C136.269 465.11 134.157 467.662 134.157 470.676C134.157 473.712 136.269 476.264 139.767 476.264ZM139.767 473.778C138.029 473.778 137.061 472.348 137.061 470.676C137.061 469.026 138.029 467.596 139.767 467.596C141.505 467.596 142.495 469.026 142.495 470.676C142.495 472.348 141.505 473.778 139.767 473.778ZM152.422 476.264C154.6 476.264 155.92 475.318 156.624 474.328L154.798 472.634C154.292 473.338 153.522 473.778 152.554 473.778C150.86 473.778 149.672 472.524 149.672 470.676C149.672 468.828 150.86 467.596 152.554 467.596C153.522 467.596 154.292 467.992 154.798 468.74L156.624 467.024C155.92 466.056 154.6 465.11 152.422 465.11C149.144 465.11 146.79 467.42 146.79 470.676C146.79 473.954 149.144 476.264 152.422 476.264ZM168.834 476L164.5 470.192L168.702 465.374H165.27L161.244 470.104V461.326H158.45V476H161.244V473.272L162.52 471.908L165.336 476H168.834ZM175.045 476.264C177.223 476.264 178.543 475.318 179.247 474.328L177.421 472.634C176.915 473.338 176.145 473.778 175.177 473.778C173.483 473.778 172.295 472.524 172.295 470.676C172.295 468.828 173.483 467.596 175.177 467.596C176.145 467.596 176.915 467.992 177.421 468.74L179.247 467.024C178.543 466.056 177.223 465.11 175.045 465.11C171.767 465.11 169.413 467.42 169.413 470.676C169.413 473.954 171.767 476.264 175.045 476.264ZM191.062 476V468.454C191.062 466.386 189.939 465.11 187.608 465.11C185.869 465.11 184.55 465.946 183.867 466.76V461.326H181.074V476H183.867V468.85C184.351 468.212 185.209 467.596 186.288 467.596C187.497 467.596 188.267 468.058 188.267 469.532V476H191.062ZM203.009 476V469.136C203.009 466.078 200.787 465.11 198.367 465.11C196.695 465.11 195.023 465.638 193.725 466.782L194.781 468.652C195.683 467.816 196.739 467.398 197.883 467.398C199.291 467.398 200.215 468.102 200.215 469.18V470.61C199.511 469.774 198.257 469.312 196.849 469.312C195.155 469.312 193.153 470.258 193.153 472.744C193.153 475.12 195.155 476.264 196.849 476.264C198.235 476.264 199.489 475.758 200.215 474.9V476H203.009ZM197.971 474.372C196.871 474.372 195.969 473.8 195.969 472.81C195.969 471.776 196.871 471.204 197.971 471.204C198.873 471.204 199.753 471.512 200.215 472.128V473.448C199.753 474.064 198.873 474.372 197.971 474.372ZM207.167 464.23C208.091 464.23 208.839 463.482 208.839 462.558C208.839 461.634 208.091 460.908 207.167 460.908C206.265 460.908 205.495 461.634 205.495 462.558C205.495 463.482 206.265 464.23 207.167 464.23ZM208.575 476V465.374H205.781V476H208.575ZM221.311 476V468.498C221.311 466.43 220.189 465.11 217.857 465.11C216.119 465.11 214.821 465.946 214.139 466.76V465.374H211.345V476H214.139V468.85C214.601 468.212 215.459 467.596 216.559 467.596C217.747 467.596 218.517 468.102 218.517 469.576V476H221.311Z" fill="#333333"/>
<path d="M968.348 422V416.786H972.088C975.256 416.786 977.016 414.608 977.016 412.056C977.016 409.482 975.278 407.326 972.088 407.326H965.224V422H968.348ZM971.67 414.036H968.348V410.076H971.67C972.902 410.076 973.826 410.824 973.826 412.056C973.826 413.266 972.902 414.036 971.67 414.036ZM987.631 422V415.136C987.631 412.078 985.409 411.11 982.989 411.11C981.317 411.11 979.645 411.638 978.347 412.782L979.403 414.652C980.305 413.816 981.361 413.398 982.505 413.398C983.913 413.398 984.837 414.102 984.837 415.18V416.61C984.133 415.774 982.879 415.312 981.471 415.312C979.777 415.312 977.775 416.258 977.775 418.744C977.775 421.12 979.777 422.264 981.471 422.264C982.857 422.264 984.111 421.758 984.837 420.9V422H987.631ZM982.593 420.372C981.493 420.372 980.591 419.8 980.591 418.81C980.591 417.776 981.493 417.204 982.593 417.204C983.495 417.204 984.375 417.512 984.837 418.128V419.448C984.375 420.064 983.495 420.372 982.593 420.372ZM994.275 422.264C997.443 422.264 999.401 420.944 999.401 419.074C999.401 417.468 997.707 416.632 996.409 416.544C997.817 416.324 999.181 415.4 999.181 414.036C999.181 412.232 997.311 411.11 993.989 411.132C992.053 411.132 990.513 411.858 989.479 412.892L990.843 414.542C991.679 413.728 992.757 413.332 994.143 413.332C995.397 413.332 996.277 413.772 996.277 414.41C996.277 415.158 995.551 415.554 994.099 415.554H991.921V417.71H994.099C995.551 417.71 996.475 418.084 996.475 418.898C996.475 419.58 995.705 420.042 994.275 420.042C992.999 420.042 991.591 419.668 990.601 418.832L989.325 420.57C990.359 421.582 992.075 422.264 994.275 422.264ZM1014.05 422V411.374H1010.35L1007.78 417.71L1005.16 411.374H1001.49V422H1004.28V415.092L1007.14 422H1008.42L1011.26 415.092V422H1014.05ZM1021.82 422.264C1023.47 422.264 1025.14 421.758 1026.2 420.79L1024.97 418.986C1024.29 419.646 1023.03 420.042 1022.13 420.042C1020.33 420.042 1019.25 418.92 1019.07 417.578H1026.97V416.962C1026.97 413.486 1024.81 411.11 1021.65 411.11C1018.41 411.11 1016.15 413.596 1016.15 416.676C1016.15 420.086 1018.59 422.264 1021.82 422.264ZM1024.26 415.686H1019.03C1019.16 414.63 1019.91 413.332 1021.65 413.332C1023.49 413.332 1024.2 414.674 1024.26 415.686ZM1041.51 411.374V419.558H1038.05V411.374H1035.26V419.558H1031.78V411.374H1028.99V422H1042.83V424.706H1045.64V419.558H1044.32V411.374H1041.51ZM1052.37 422.264C1054.02 422.264 1055.7 421.758 1056.75 420.79L1055.52 418.986C1054.84 419.646 1053.58 420.042 1052.68 420.042C1050.88 420.042 1049.8 418.92 1049.62 417.578H1057.52V416.962C1057.52 413.486 1055.37 411.11 1052.2 411.11C1048.96 411.11 1046.7 413.596 1046.7 416.676C1046.7 420.086 1049.14 422.264 1052.37 422.264ZM1054.82 415.686H1049.58C1049.71 414.63 1050.46 413.332 1052.2 413.332C1054.05 413.332 1054.75 414.674 1054.82 415.686ZM1062.33 422V417.754H1066.73V422H1069.53V411.374H1066.73V415.312H1062.33V411.374H1059.54V422H1062.33ZM1074.99 422L1079.5 415.334V422H1082.29V411.374H1079.47L1075.1 417.798V411.374H1072.3V422H1074.99ZM1090.06 422.264C1091.71 422.264 1093.38 421.758 1094.43 420.79L1093.2 418.986C1092.52 419.646 1091.27 420.042 1090.36 420.042C1088.56 420.042 1087.48 418.92 1087.31 417.578H1095.2V416.962C1095.2 413.486 1093.05 411.11 1089.88 411.11C1086.65 411.11 1084.38 413.596 1084.38 416.676C1084.38 420.086 1086.82 422.264 1090.06 422.264ZM1092.5 415.686H1087.26C1087.39 414.63 1088.14 413.332 1089.88 413.332C1091.73 413.332 1092.43 414.674 1092.5 415.686ZM1105.54 422L1110.05 415.334V422H1112.84V411.374H1110.02L1105.65 417.798V411.374H1102.85V422H1105.54ZM914.775 449.264C918.295 449.264 920.407 446.712 920.407 443.676C920.407 440.662 918.295 438.11 914.775 438.11C911.277 438.11 909.165 440.662 909.165 443.676C909.165 446.712 911.277 449.264 914.775 449.264ZM914.775 446.778C913.037 446.778 912.069 445.348 912.069 443.676C912.069 442.026 913.037 440.596 914.775 440.596C916.513 440.596 917.503 442.026 917.503 443.676C917.503 445.348 916.513 446.778 914.775 446.778ZM927.408 446.778C925.67 446.778 924.702 445.348 924.702 443.632C924.702 442.026 925.67 440.596 927.408 440.596C929.146 440.596 930.136 442.026 930.136 443.632C930.136 445.348 929.146 446.778 927.408 446.778ZM927.408 449.264C930.95 449.264 933.018 446.646 933.018 443.654C933.018 440.706 931.038 438.11 928.002 438.11C926.528 438.11 925.23 438.726 924.372 439.848C924.658 438.616 925.692 437.516 928.2 437.186C929.938 436.966 932.622 436.394 932.622 434.326H929.718C929.718 434.7 929.102 434.964 927.32 435.228C923.668 435.712 921.798 438.022 921.798 443.192C921.798 446.646 923.866 449.264 927.408 449.264ZM940.127 449.264C942.305 449.264 943.625 448.318 944.329 447.328L942.503 445.634C941.997 446.338 941.227 446.778 940.259 446.778C938.565 446.778 937.377 445.524 937.377 443.676C937.377 441.828 938.565 440.596 940.259 440.596C941.227 440.596 941.997 440.992 942.503 441.74L944.329 440.024C943.625 439.056 942.305 438.11 940.127 438.11C936.849 438.11 934.495 440.42 934.495 443.676C934.495 446.954 936.849 449.264 940.127 449.264ZM945.166 449.264C947.872 449.264 949.192 447.526 949.632 443.852L949.984 440.816H953.35V449H956.144V438.374H947.542L946.86 443.522C946.53 446.096 946.024 446.976 945.166 446.976V449.264ZM958.543 453.158C958.895 453.246 959.599 453.312 959.929 453.312C961.755 453.268 963.163 452.74 963.955 450.738L968.949 438.374H965.935L963.163 445.766L960.391 438.374H957.399L961.711 449.154L961.315 450.056C961.051 450.628 960.567 450.826 959.841 450.826C959.577 450.826 959.203 450.76 958.961 450.65L958.543 453.158ZM972.309 449L975.147 444.908L975.653 445.458V449H978.469V445.458L978.975 444.908L981.813 449H985.289L980.977 443.192L985.157 438.374H981.725L978.469 442.224V438.374H975.653V442.224L972.397 438.374H968.965L973.145 443.192L968.833 449H972.309ZM989.381 449L993.891 442.334V449H996.685V438.374H993.869L989.491 444.798V438.374H986.697V449H989.381ZM1006.39 449C1008.52 449 1009.67 447.724 1009.67 446.118C1009.67 444.842 1008.81 443.786 1007.64 443.522C1008.63 443.236 1009.45 442.378 1009.45 441.102C1009.45 439.672 1008.35 438.374 1006.19 438.374H999.458V449H1006.39ZM1005.71 446.712H1002.25V444.732H1005.71C1006.41 444.732 1006.81 445.194 1006.81 445.722C1006.81 446.338 1006.39 446.712 1005.71 446.712ZM1005.62 442.444H1002.25V440.662H1005.62C1006.23 440.662 1006.61 441.036 1006.61 441.564C1006.61 442.048 1006.23 442.444 1005.62 442.444ZM1021.52 449V442.136C1021.52 439.078 1019.3 438.11 1016.88 438.11C1015.21 438.11 1013.54 438.638 1012.24 439.782L1013.29 441.652C1014.2 440.816 1015.25 440.398 1016.4 440.398C1017.8 440.398 1018.73 441.102 1018.73 442.18V443.61C1018.02 442.774 1016.77 442.312 1015.36 442.312C1013.67 442.312 1011.67 443.258 1011.67 445.744C1011.67 448.12 1013.67 449.264 1015.36 449.264C1016.75 449.264 1018 448.758 1018.73 447.9V449H1021.52ZM1016.48 447.372C1015.38 447.372 1014.48 446.8 1014.48 445.81C1014.48 444.776 1015.38 444.204 1016.48 444.204C1017.39 444.204 1018.27 444.512 1018.73 445.128V446.448C1018.27 447.064 1017.39 447.372 1016.48 447.372ZM1027.09 449V444.754H1031.49V449H1034.28V438.374H1031.49V442.312H1027.09V438.374H1024.29V449H1027.09ZM1039.74 449L1044.25 442.334V449H1047.04V438.374H1044.23L1039.85 444.798V438.374H1037.06V449H1039.74ZM1054.81 449.264C1056.46 449.264 1058.13 448.758 1059.19 447.79L1057.96 445.986C1057.28 446.646 1056.02 447.042 1055.12 447.042C1053.32 447.042 1052.24 445.92 1052.06 444.578H1059.96V443.962C1059.96 440.486 1057.8 438.11 1054.64 438.11C1051.4 438.11 1049.14 440.596 1049.14 443.676C1049.14 447.086 1051.58 449.264 1054.81 449.264ZM1057.25 442.686H1052.02C1052.15 441.63 1052.9 440.332 1054.64 440.332C1056.48 440.332 1057.19 441.674 1057.25 442.686ZM1080.17 449V438.374H1076.47L1073.9 444.71L1071.28 438.374H1067.61V449H1070.4V442.092L1073.26 449H1074.54L1077.37 442.092V449H1080.17ZM1092.12 449V442.136C1092.12 439.078 1089.9 438.11 1087.48 438.11C1085.81 438.11 1084.13 438.638 1082.84 439.782L1083.89 441.652C1084.79 440.816 1085.85 440.398 1086.99 440.398C1088.4 440.398 1089.33 441.102 1089.33 442.18V443.61C1088.62 442.774 1087.37 442.312 1085.96 442.312C1084.27 442.312 1082.26 443.258 1082.26 445.744C1082.26 448.12 1084.27 449.264 1085.96 449.264C1087.35 449.264 1088.6 448.758 1089.33 447.9V449H1092.12ZM1087.08 447.372C1085.98 447.372 1085.08 446.8 1085.08 445.81C1085.08 444.776 1085.98 444.204 1087.08 444.204C1087.98 444.204 1088.86 444.512 1089.33 445.128V446.448C1088.86 447.064 1087.98 447.372 1087.08 447.372ZM1097.58 449L1102.09 442.334V449H1104.88V438.374H1102.06L1097.69 444.798V438.374H1094.89V449H1097.58ZM1103.74 435.382L1102.5 434.348C1101.89 435.206 1100.99 435.712 1099.89 435.712C1098.74 435.712 1097.84 435.184 1097.25 434.348L1096.01 435.382C1096.92 436.57 1098.32 437.318 1099.89 437.318C1101.47 437.318 1102.86 436.57 1103.74 435.382ZM1110.45 449V444.754H1114.85V449H1117.64V438.374H1114.85V442.312H1110.45V438.374H1107.65V449H1110.45ZM1125.41 449.264C1127.06 449.264 1128.73 448.758 1129.79 447.79L1128.56 445.986C1127.87 446.646 1126.62 447.042 1125.72 447.042C1123.91 447.042 1122.84 445.92 1122.66 444.578H1130.56V443.962C1130.56 440.486 1128.4 438.11 1125.23 438.11C1122 438.11 1119.73 440.596 1119.73 443.676C1119.73 447.086 1122.18 449.264 1125.41 449.264ZM1127.85 442.686H1122.62C1122.75 441.63 1123.5 440.332 1125.23 440.332C1127.08 440.332 1127.79 441.674 1127.85 442.686ZM1138.65 449.264C1141.38 449.264 1143.36 447.218 1143.36 443.676C1143.36 440.134 1141.38 438.11 1138.65 438.11C1137.35 438.11 1136.18 438.682 1135.37 439.716V438.374H1132.58V453.048H1135.37V447.636C1136.23 448.736 1137.39 449.264 1138.65 449.264ZM1137.77 446.778C1136.87 446.778 1135.83 446.228 1135.37 445.568V441.806C1135.83 441.124 1136.87 440.596 1137.77 440.596C1139.37 440.596 1140.45 441.85 1140.45 443.676C1140.45 445.524 1139.37 446.778 1137.77 446.778ZM1150.33 449.264C1153.85 449.264 1155.96 446.712 1155.96 443.676C1155.96 440.662 1153.85 438.11 1150.33 438.11C1146.83 438.11 1144.72 440.662 1144.72 443.676C1144.72 446.712 1146.83 449.264 1150.33 449.264ZM1150.33 446.778C1148.59 446.778 1147.62 445.348 1147.62 443.676C1147.62 442.026 1148.59 440.596 1150.33 440.596C1152.07 440.596 1153.06 442.026 1153.06 443.676C1153.06 445.348 1152.07 446.778 1150.33 446.778ZM1164.96 449C1167.1 449 1168.24 447.724 1168.24 446.118C1168.24 444.842 1167.38 443.786 1166.22 443.522C1167.21 443.236 1168.02 442.378 1168.02 441.102C1168.02 439.672 1166.92 438.374 1164.77 438.374H1158.03V449H1164.96ZM1164.28 446.712H1160.83V444.732H1164.28C1164.99 444.732 1165.38 445.194 1165.38 445.722C1165.38 446.338 1164.96 446.712 1164.28 446.712ZM1164.19 442.444H1160.83V440.662H1164.19C1164.81 440.662 1165.18 441.036 1165.18 441.564C1165.18 442.048 1164.81 442.444 1164.19 442.444ZM903.736 476C905.87 476 907.014 474.724 907.014 473.118C907.014 471.842 906.156 470.786 904.99 470.522C905.98 470.236 906.794 469.378 906.794 468.102C906.794 466.672 905.694 465.374 903.538 465.374H896.806V476H903.736ZM903.054 473.712H899.6V471.732H903.054C903.758 471.732 904.154 472.194 904.154 472.722C904.154 473.338 903.736 473.712 903.054 473.712ZM902.966 469.444H899.6V467.662H902.966C903.582 467.662 903.956 468.036 903.956 468.564C903.956 469.048 903.582 469.444 902.966 469.444ZM920.275 476.264C922.453 476.264 923.773 475.318 924.477 474.328L922.651 472.634C922.145 473.338 921.375 473.778 920.407 473.778C918.713 473.778 917.525 472.524 917.525 470.676C917.525 468.828 918.713 467.596 920.407 467.596C921.375 467.596 922.145 467.992 922.651 468.74L924.477 467.024C923.773 466.056 922.453 465.11 920.275 465.11C916.997 465.11 914.643 467.42 914.643 470.676C914.643 473.954 916.997 476.264 920.275 476.264ZM931.232 476.264C934.752 476.264 936.864 473.712 936.864 470.676C936.864 467.662 934.752 465.11 931.232 465.11C927.734 465.11 925.622 467.662 925.622 470.676C925.622 473.712 927.734 476.264 931.232 476.264ZM931.232 473.778C929.494 473.778 928.526 472.348 928.526 470.676C928.526 469.026 929.494 467.596 931.232 467.596C932.97 467.596 933.96 469.026 933.96 470.676C933.96 472.348 932.97 473.778 931.232 473.778ZM943.865 473.778C942.127 473.778 941.159 472.348 941.159 470.632C941.159 469.026 942.127 467.596 943.865 467.596C945.603 467.596 946.593 469.026 946.593 470.632C946.593 472.348 945.603 473.778 943.865 473.778ZM943.865 476.264C947.407 476.264 949.475 473.646 949.475 470.654C949.475 467.706 947.495 465.11 944.459 465.11C942.985 465.11 941.687 465.726 940.829 466.848C941.115 465.616 942.149 464.516 944.657 464.186C946.395 463.966 949.079 463.394 949.079 461.326H946.175C946.175 461.7 945.559 461.964 943.777 462.228C940.125 462.712 938.255 465.022 938.255 470.192C938.255 473.646 940.323 476.264 943.865 476.264ZM956.584 476.264C958.762 476.264 960.082 475.318 960.786 474.328L958.96 472.634C958.454 473.338 957.684 473.778 956.716 473.778C955.022 473.778 953.834 472.524 953.834 470.676C953.834 468.828 955.022 467.596 956.716 467.596C957.684 467.596 958.454 467.992 958.96 468.74L960.786 467.024C960.082 466.056 958.762 465.11 956.584 465.11C953.306 465.11 950.952 467.42 950.952 470.676C950.952 473.954 953.306 476.264 956.584 476.264ZM967.387 476V467.816H970.357V465.374H961.601V467.816H964.571V476H967.387ZM979.039 476C981.173 476 982.317 474.724 982.317 473.118C982.317 471.842 981.459 470.786 980.293 470.522C981.283 470.236 982.097 469.378 982.097 468.102C982.097 466.672 980.997 465.374 978.841 465.374H972.109V476H979.039ZM978.357 473.712H974.903V471.732H978.357C979.061 471.732 979.457 472.194 979.457 472.722C979.457 473.338 979.039 473.712 978.357 473.712ZM978.269 469.444H974.903V467.662H978.269C978.885 467.662 979.259 468.036 979.259 468.564C979.259 469.048 978.885 469.444 978.269 469.444ZM989.993 476.264C991.643 476.264 993.315 475.758 994.371 474.79L993.139 472.986C992.457 473.646 991.203 474.042 990.301 474.042C988.497 474.042 987.419 472.92 987.243 471.578H995.141V470.962C995.141 467.486 992.985 465.11 989.817 465.11C986.583 465.11 984.317 467.596 984.317 470.676C984.317 474.086 986.759 476.264 989.993 476.264ZM992.435 469.686H987.199C987.331 468.63 988.079 467.332 989.817 467.332C991.665 467.332 992.369 468.674 992.435 469.686ZM999.953 476V471.754H1004.35V476H1007.15V465.374H1004.35V469.312H999.953V465.374H997.159V476H999.953ZM1012.72 476V471.754H1017.12V476H1019.91V465.374H1017.12V469.312H1012.72V465.374H1009.92V476H1012.72ZM1027.61 476.264C1031.13 476.264 1033.24 473.712 1033.24 470.676C1033.24 467.662 1031.13 465.11 1027.61 465.11C1024.11 465.11 1022 467.662 1022 470.676C1022 473.712 1024.11 476.264 1027.61 476.264ZM1027.61 473.778C1025.87 473.778 1024.9 472.348 1024.9 470.676C1024.9 469.026 1025.87 467.596 1027.61 467.596C1029.35 467.596 1030.34 469.026 1030.34 470.676C1030.34 472.348 1029.35 473.778 1027.61 473.778ZM1047.88 476V465.374H1044.18L1041.61 471.71L1038.99 465.374H1035.32V476H1038.11V469.092L1040.97 476H1042.25L1045.08 469.092V476H1047.88ZM1055.47 478.706H1058.59V476H1067.75V478.706H1070.87V473.25H1069.55V461.326H1059.12L1058.26 468.828C1057.8 472.7 1056.97 473.294 1055.47 473.492V478.706ZM1061.37 469.048L1061.94 464.076H1066.4V473.25H1059.58C1060.51 472.392 1061.15 471.028 1061.37 469.048ZM1081.81 476V469.136C1081.81 466.078 1079.59 465.11 1077.17 465.11C1075.49 465.11 1073.82 465.638 1072.52 466.782L1073.58 468.652C1074.48 467.816 1075.54 467.398 1076.68 467.398C1078.09 467.398 1079.01 468.102 1079.01 469.18V470.61C1078.31 469.774 1077.06 469.312 1075.65 469.312C1073.95 469.312 1071.95 470.258 1071.95 472.744C1071.95 475.12 1073.95 476.264 1075.65 476.264C1077.03 476.264 1078.29 475.758 1079.01 474.9V476H1081.81ZM1076.77 474.372C1075.67 474.372 1074.77 473.8 1074.77 472.81C1074.77 471.776 1075.67 471.204 1076.77 471.204C1077.67 471.204 1078.55 471.512 1079.01 472.128V473.448C1078.55 474.064 1077.67 474.372 1076.77 474.372ZM1089.35 476V467.816H1092.32V465.374H1083.57V467.816H1086.54V476H1089.35ZM1103.25 476V469.136C1103.25 466.078 1101.03 465.11 1098.61 465.11C1096.94 465.11 1095.26 465.638 1093.97 466.782L1095.02 468.652C1095.92 467.816 1096.98 467.398 1098.12 467.398C1099.53 467.398 1100.46 468.102 1100.46 469.18V470.61C1099.75 469.774 1098.5 469.312 1097.09 469.312C1095.4 469.312 1093.39 470.258 1093.39 472.744C1093.39 475.12 1095.4 476.264 1097.09 476.264C1098.48 476.264 1099.73 475.758 1100.46 474.9V476H1103.25ZM1098.21 474.372C1097.11 474.372 1096.21 473.8 1096.21 472.81C1096.21 471.776 1097.11 471.204 1098.21 471.204C1099.11 471.204 1099.99 471.512 1100.46 472.128V473.448C1099.99 474.064 1099.11 474.372 1098.21 474.372ZM1120.01 478.706H1122.8V473.558H1121.64V465.374H1118.84V473.558H1114.44V465.374H1111.65V476H1120.01V478.706ZM1129.56 476.264C1131.21 476.264 1132.88 475.758 1133.93 474.79L1132.7 472.986C1132.02 473.646 1130.77 474.042 1129.86 474.042C1128.06 474.042 1126.98 472.92 1126.81 471.578H1134.7V470.962C1134.7 467.486 1132.55 465.11 1129.38 465.11C1126.15 465.11 1123.88 467.596 1123.88 470.676C1123.88 474.086 1126.32 476.264 1129.56 476.264ZM1132 469.686H1126.76C1126.89 468.63 1127.64 467.332 1129.38 467.332C1131.23 467.332 1131.93 468.674 1132 469.686ZM1139.52 476V471.754H1143.92V476H1146.71V465.374H1143.92V469.312H1139.52V465.374H1136.72V476H1139.52ZM1154.26 476V467.816H1157.23V465.374H1148.47V467.816H1151.44V476H1154.26ZM1165.05 476.264C1167.78 476.264 1169.76 474.218 1169.76 470.676C1169.76 467.134 1167.78 465.11 1165.05 465.11C1163.75 465.11 1162.59 465.682 1161.77 466.716V465.374H1158.98V480.048H1161.77V474.636C1162.63 475.736 1163.8 476.264 1165.05 476.264ZM1164.17 473.778C1163.27 473.778 1162.24 473.228 1161.77 472.568V468.806C1162.24 468.124 1163.27 467.596 1164.17 467.596C1165.78 467.596 1166.86 468.85 1166.86 470.676C1166.86 472.524 1165.78 473.778 1164.17 473.778ZM1176.8 476.264C1178.45 476.264 1180.12 475.758 1181.18 474.79L1179.95 472.986C1179.26 473.646 1178.01 474.042 1177.11 474.042C1175.3 474.042 1174.23 472.92 1174.05 471.578H1181.95V470.962C1181.95 467.486 1179.79 465.11 1176.62 465.11C1173.39 465.11 1171.12 467.596 1171.12 470.676C1171.12 474.086 1173.57 476.264 1176.8 476.264ZM1179.24 469.686H1174.01C1174.14 468.63 1174.89 467.332 1176.62 467.332C1178.47 467.332 1179.18 468.674 1179.24 469.686Z" fill="#333333"/>
<defs>
<linearGradient id="paint0_linear_1866_6" x1="606" y1="263" x2="606" y2="636" gradientUnits="userSpaceOnUse">
<stop stop-color="#F2A04A"/>
<stop offset="1" stop-color="#F2C24D"/>
</linearGradient>
<linearGradient id="paint1_linear_1866_6" x1="438" y1="252" x2="438" y2="278" gradientUnits="userSpaceOnUse">
<stop stop-color="#F2A04A"/>
<stop offset="1" stop-color="#F2C24D"/>
</linearGradient>
<linearGradient id="paint2_linear_1866_6" x1="438" y1="255" x2="438" y2="275" gradientUnits="userSpaceOnUse">
<stop stop-color="#F2A04A"/>
<stop offset="1" stop-color="#F2C24D"/>
</linearGradient>
<linearGradient id="paint3_linear_1866_6" x1="604.5" y1="411" x2="604.5" y2="474" gradientUnits="userSpaceOnUse">
<stop stop-color="#F2A04A"/>
<stop offset="1" stop-color="#F2C24D"/>
</linearGradient>
<linearGradient id="paint4_linear_1866_6" x1="604.5" y1="414" x2="604.5" y2="471" gradientUnits="userSpaceOnUse">
<stop stop-color="#F2A04A"/>
<stop offset="1" stop-color="#F2C24D"/>
</linearGradient>
<linearGradient id="paint5_linear_1866_6" x1="812" y1="252" x2="812" y2="278" gradientUnits="userSpaceOnUse">
<stop stop-color="#F2A04A"/>
<stop offset="1" stop-color="#F2C24D"/>
</linearGradient>
<linearGradient id="paint6_linear_1866_6" x1="812" y1="255" x2="812" y2="275" gradientUnits="userSpaceOnUse">
<stop stop-color="#F2A04A"/>
<stop offset="1" stop-color="#F2C24D"/>
</linearGradient>
<linearGradient id="paint7_linear_1866_6" x1="1045" y1="367" x2="1045" y2="393" gradientUnits="userSpaceOnUse">
<stop stop-color="#F2A04A"/>
<stop offset="1" stop-color="#F2C24D"/>
</linearGradient>
<linearGradient id="paint8_linear_1866_6" x1="1045" y1="370" x2="1045" y2="390" gradientUnits="userSpaceOnUse">
<stop stop-color="#F2A04A"/>
<stop offset="1" stop-color="#F2C24D"/>
</linearGradient>
<linearGradient id="paint9_linear_1866_6" x1="1045" y1="496" x2="1045" y2="522" gradientUnits="userSpaceOnUse">
<stop stop-color="#F2A04A"/>
<stop offset="1" stop-color="#F2C24D"/>
</linearGradient>
<linearGradient id="paint10_linear_1866_6" x1="1045" y1="499" x2="1045" y2="519" gradientUnits="userSpaceOnUse">
<stop stop-color="#F2A04A"/>
<stop offset="1" stop-color="#F2C24D"/>
</linearGradient>
<linearGradient id="paint11_linear_1866_6" x1="805" y1="623" x2="805" y2="649" gradientUnits="userSpaceOnUse">
<stop stop-color="#F2A04A"/>
<stop offset="1" stop-color="#F2C24D"/>
</linearGradient>
<linearGradient id="paint12_linear_1866_6" x1="805" y1="626" x2="805" y2="646" gradientUnits="userSpaceOnUse">
<stop stop-color="#F2A04A"/>
<stop offset="1" stop-color="#F2C24D"/>
</linearGradient>
<linearGradient id="paint13_linear_1866_6" x1="448" y1="623" x2="448" y2="649" gradientUnits="userSpaceOnUse">
<stop stop-color="#F2A04A"/>
<stop offset="1" stop-color="#F2C24D"/>
</linearGradient>
<linearGradient id="paint14_linear_1866_6" x1="448" y1="626" x2="448" y2="646" gradientUnits="userSpaceOnUse">
<stop stop-color="#F2A04A"/>
<stop offset="1" stop-color="#F2C24D"/>
</linearGradient>
<linearGradient id="paint15_linear_1866_6" x1="167" y1="497" x2="167" y2="523" gradientUnits="userSpaceOnUse">
<stop stop-color="#F2A04A"/>
<stop offset="1" stop-color="#F2C24D"/>
</linearGradient>
<linearGradient id="paint16_linear_1866_6" x1="167" y1="500" x2="167" y2="520" gradientUnits="userSpaceOnUse">
<stop stop-color="#F2A04A"/>
<stop offset="1" stop-color="#F2C24D"/>
</linearGradient>
<linearGradient id="paint17_linear_1866_6" x1="167" y1="367" x2="167" y2="393" gradientUnits="userSpaceOnUse">
<stop stop-color="#F2A04A"/>
<stop offset="1" stop-color="#F2C24D"/>
</linearGradient>
<linearGradient id="paint18_linear_1866_6" x1="167" y1="370" x2="167" y2="390" gradientUnits="userSpaceOnUse">
<stop stop-color="#F2A04A"/>
<stop offset="1" stop-color="#F2C24D"/>
</linearGradient>
</defs>
</svg>
